<?xml version="1.0" encoding="utf-8"?>
<!-- Generator: Adobe Illustrator 15.0.0, SVG Export Plug-In . SVG Version: 6.00 Build 0)  -->
<!DOCTYPE svg PUBLIC "-//W3C//DTD SVG 1.1//EN" "http://www.w3.org/Graphics/SVG/1.1/DTD/svg11.dtd">
<svg version="1.1" id="Capa_1" xmlns="http://www.w3.org/2000/svg" xmlns:xlink="http://www.w3.org/1999/xlink" x="0px" y="0px"
	 width="36px" height="26.303px" viewBox="0 0 36 26.303" enable-background="new 0 0 36 26.303" xml:space="preserve">
<path fill="#EAEDEC" d="M3.615,0C1.623,0,0,1.62,0,3.612v19.078c0,1.991,1.623,3.613,3.615,3.613h28.768
	c1.992,0,3.615-1.622,3.615-3.613L36,11.569V3.612C36,1.62,34.375,0,32.383,0H3.615z M3.615,1.284h28.768
	c1.303,0,2.334,1.025,2.334,2.328V6.44H1.284V3.612C1.284,2.31,2.313,1.284,3.615,1.284z M1.284,7.726h33.433v3.199H1.284V7.726z
	 M1.284,12.208h33.433v10.479c0,1.304-1.029,2.332-2.334,2.332H3.615c-1.302,0-2.331-1.028-2.331-2.332V12.208z M5.212,16.446
	c-0.173-0.004-0.34,0.062-0.464,0.184c-0.122,0.12-0.192,0.286-0.192,0.459s0.07,0.338,0.192,0.458
	c0.124,0.121,0.291,0.188,0.464,0.184h8.08c0.349-0.008,0.628-0.293,0.628-0.642c0-0.35-0.279-0.635-0.628-0.643H5.212z
	 M5.212,19.916c-0.173-0.004-0.34,0.062-0.464,0.184c-0.122,0.12-0.192,0.286-0.192,0.458c0,0.174,0.07,0.34,0.192,0.459
	c0.124,0.121,0.291,0.187,0.464,0.185h3.451c0.173,0.002,0.34-0.063,0.463-0.185c0.124-0.119,0.193-0.285,0.193-0.459
	c0-0.172-0.069-0.338-0.193-0.458c-0.124-0.122-0.291-0.188-0.463-0.184H5.212z"/>
</svg>
