<?xml version="1.0" encoding="utf-8"?>
<!-- Generator: Adobe Illustrator 15.0.0, SVG Export Plug-In . SVG Version: 6.00 Build 0)  -->
<!DOCTYPE svg PUBLIC "-//W3C//DTD SVG 1.1//EN" "http://www.w3.org/Graphics/SVG/1.1/DTD/svg11.dtd">
<svg version="1.1" id="Capa_1" xmlns="http://www.w3.org/2000/svg" xmlns:xlink="http://www.w3.org/1999/xlink" x="0px" y="0px"
	 width="481.667px" height="160.883px" viewBox="0 0 481.667 160.883" enable-background="new 0 0 481.667 160.883"
	 xml:space="preserve">
<g>
	<g>
		<g>
			<g>
				<defs>
					<rect id="SVGID_1_" width="481.667" height="161.008"/>
				</defs>
				<clipPath id="SVGID_2_">
					<use xlink:href="#SVGID_1_"  overflow="visible"/>
				</clipPath>
				<path clip-path="url(#SVGID_2_)" fill="#A6A6A6" d="M443.31,0H38.379c-1.477,0-2.937,0-4.408,0.01
					c-1.231,0.008-2.453,0.031-3.698,0.051c-2.703,0.031-5.398,0.269-8.066,0.71c-2.663,0.453-5.242,1.303-7.651,2.525
					C12.151,4.528,9.952,6.128,8.041,8.04c-1.923,1.905-3.523,4.107-4.744,6.524c-1.222,2.412-2.071,4.996-2.515,7.662
					c-0.447,2.663-0.688,5.357-0.72,8.058c-0.038,1.234-0.042,2.472-0.063,3.707v93.04c0.021,1.248,0.025,2.458,0.063,3.709
					c0.032,2.701,0.272,5.396,0.72,8.058c0.444,2.667,1.292,5.254,2.515,7.666c1.221,2.407,2.821,4.603,4.744,6.498
					c1.903,1.921,4.103,3.521,6.514,4.744c2.409,1.224,4.989,2.081,7.651,2.538c2.668,0.441,5.364,0.677,8.066,0.714
					c1.246,0.026,2.467,0.042,3.698,0.042c1.471,0.008,2.931,0.008,4.408,0.008H443.31c1.447,0,2.914,0,4.363-0.008
					c1.229,0,2.484-0.016,3.711-0.042c2.697-0.035,5.391-0.271,8.049-0.714c2.672-0.462,5.264-1.316,7.684-2.538
					c2.41-1.224,4.605-2.824,6.51-4.744c1.916-1.903,3.518-4.097,4.754-6.498c1.217-2.414,2.053-4.998,2.492-7.666
					c0.453-2.662,0.695-5.356,0.744-8.058c0.018-1.25,0.018-2.461,0.018-3.709c0.033-1.465,0.033-2.918,0.033-4.404v-84.24
					c0-1.475,0-2.938-0.033-4.396c0-1.235,0-2.473-0.018-3.709c-0.049-2.698-0.291-5.393-0.744-8.056
					c-0.439-2.666-1.275-5.25-2.492-7.662c-2.479-4.843-6.422-8.784-11.264-11.27c-2.42-1.219-5.012-2.068-7.684-2.523
					c-2.658-0.443-5.352-0.681-8.049-0.712c-1.227-0.018-2.482-0.041-3.711-0.049C446.226,0,444.757,0,443.31,0"/>
			</g>
		</g>
	</g>
	<g>
		<g>
			<g>
				<defs>
					<rect id="SVGID_3_" width="481.667" height="161.008"/>
				</defs>
				<clipPath id="SVGID_4_">
					<use xlink:href="#SVGID_3_"  overflow="visible"/>
				</clipPath>
				<path clip-path="url(#SVGID_4_)" fill="#010202" d="M33.992,157.484c-1.227,0-2.424-0.018-3.642-0.043
					c-2.519-0.031-5.034-0.252-7.522-0.657c-2.319-0.396-4.567-1.144-6.667-2.204c-2.082-1.053-3.981-2.434-5.623-4.091
					c-1.668-1.636-3.055-3.538-4.108-5.622c-1.066-2.1-1.804-4.348-2.187-6.672c-0.414-2.494-0.637-5.02-0.67-7.545
					c-0.025-0.853-0.058-3.674-0.058-3.674V33.991c0,0,0.035-2.782,0.058-3.6c0.032-2.527,0.254-5.046,0.667-7.535
					c0.385-2.33,1.122-4.585,2.188-6.691c1.049-2.082,2.43-3.983,4.087-5.626c1.653-1.659,3.558-3.048,5.645-4.118
					c2.094-1.057,4.339-1.795,6.655-2.188c2.496-0.409,5.019-0.628,7.548-0.661l3.632-0.048h413.659l3.678,0.05
					c2.504,0.031,5.004,0.249,7.477,0.655c2.344,0.398,4.607,1.141,6.73,2.204c4.18,2.153,7.576,5.559,9.723,9.742
					c1.049,2.092,1.773,4.329,2.156,6.637c0.414,2.511,0.645,5.051,0.699,7.596c0.008,1.141,0.008,2.365,0.008,3.583
					c0.031,1.508,0.031,2.946,0.031,4.396v84.24c0,1.464,0,2.889-0.031,4.329c0,1.31,0,2.509-0.012,3.741
					c-0.053,2.501-0.281,4.994-0.691,7.46c-0.375,2.341-1.105,4.606-2.172,6.722c-1.064,2.064-2.443,3.947-4.092,5.578
					c-1.645,1.667-3.541,3.057-5.627,4.118c-2.119,1.067-4.381,1.815-6.723,2.21c-2.482,0.406-5.002,0.628-7.52,0.656
					c-1.176,0.029-2.412,0.043-3.611,0.043l-4.363,0.011L33.992,157.484z"/>
			</g>
		</g>
	</g>
</g>
<g enable-background="new    ">
	<path fill="#FFFFFF" d="M156.706,45.617c0,7.547-5.148,12.166-13.012,12.166h-8.005V33.275h8.005
		C151.558,33.275,156.706,38.036,156.706,45.617z M143.694,54.504c5.783,0,8.886-3.314,8.886-8.887c0-5.606-3.103-9.063-8.886-9.063
		h-3.985v17.949L143.694,54.504L143.694,54.504z"/>
	<path fill="#FFFFFF" d="M160.157,33.205c0-1.446,1.128-2.574,2.574-2.574c1.411,0,2.539,1.128,2.539,2.574
		c0,1.445-1.128,2.574-2.539,2.574C161.286,35.779,160.157,34.65,160.157,33.205z M160.686,38.354h4.02v19.43h-4.02V38.354z"/>
	<path fill="#FFFFFF" d="M177.046,58.101c-4.655,0-7.934-2.751-8.11-6.276h4.161c0.141,1.586,1.657,2.891,3.879,2.891
		c2.327,0,3.562-0.987,3.562-2.327c0-3.809-11.284-1.622-11.284-8.745c0-3.103,2.892-5.606,7.476-5.606
		c4.408,0,7.299,2.362,7.511,6.241h-4.02c-0.141-1.692-1.446-2.856-3.632-2.856c-2.151,0-3.279,0.882-3.279,2.187
		c0,3.914,10.967,1.728,11.178,8.745C184.487,55.632,181.631,58.101,177.046,58.101z"/>
	<path fill="#FFFFFF" d="M199.611,38.036c5.113,0,9.133,3.949,9.133,9.944c0,5.994-4.02,10.12-9.133,10.12
		c-3.209,0-5.501-1.622-6.771-3.139v12.061h-4.02V38.354h4.02v2.856C194.075,39.588,196.438,38.036,199.611,38.036z M198.73,41.527
		c-2.998,0-5.889,2.362-5.889,6.523c0,4.196,2.892,6.559,5.889,6.559c3.033,0,5.924-2.433,5.924-6.629S201.763,41.527,198.73,41.527
		z"/>
	<path fill="#FFFFFF" d="M221.153,58.101c-5.537,0-9.733-3.949-9.733-10.05c0-6.101,4.373-10.015,9.909-10.015
		s9.909,3.914,9.909,10.015C231.238,54.152,226.725,58.101,221.153,58.101z M221.153,54.609c2.997,0,5.959-2.151,5.959-6.559
		c0-4.408-2.856-6.523-5.854-6.523c-3.032,0-5.748,2.115-5.748,6.523C215.511,52.458,218.121,54.609,221.153,54.609z"/>
	<path fill="#FFFFFF" d="M249.005,46.922c0-3.562-1.939-5.395-4.865-5.395c-2.962,0-4.902,1.833-4.902,5.395v10.861h-4.02v-19.43
		h4.02v2.222c1.305-1.587,3.457-2.539,5.783-2.539c4.549,0,7.971,2.856,7.971,8.286v11.461h-3.986V46.922L249.005,46.922z"/>
	<path fill="#FFFFFF" d="M257.57,33.205c0-1.446,1.129-2.574,2.574-2.574c1.412,0,2.539,1.128,2.539,2.574
		c0,1.445-1.127,2.574-2.539,2.574C258.699,35.779,257.57,34.65,257.57,33.205z M258.099,38.354h4.02v19.43h-4.02V38.354z"/>
	<path fill="#FFFFFF" d="M278.197,38.036c5.148,0,9.135,3.949,9.135,9.944c0,5.994-4.021,10.12-9.135,10.12
		c-3.209,0-5.5-1.446-6.77-3.139v2.821h-4.02V31.688h4.02v9.557C272.697,39.481,275.13,38.036,278.197,38.036z M277.316,41.527
		c-2.998,0-5.889,2.362-5.889,6.523c0,4.196,2.891,6.559,5.889,6.559c3.033,0,5.924-2.433,5.924-6.629
		S280.349,41.527,277.316,41.527z"/>
	<path fill="#FFFFFF" d="M291.31,31.688h4.021v26.095h-4.021V31.688z"/>
	<path fill="#FFFFFF" d="M308.976,58.101c-5.572,0-9.697-3.949-9.697-10.05c0-6.101,3.949-10.015,9.697-10.015
		c5.537,0,9.451,3.844,9.451,9.556c0,0.67-0.035,1.305-0.143,1.976h-14.847c0.283,3.208,2.574,5.147,5.537,5.147
		c2.469,0,3.844-1.198,4.584-2.715h4.338C316.804,55.386,313.736,58.101,308.976,58.101z M303.474,46.322h10.756
		c-0.07-2.997-2.434-4.901-5.43-4.901C306.083,41.421,303.898,43.255,303.474,46.322z"/>
	<path fill="#FFFFFF" d="M339.896,58.101c-5.572,0-9.697-3.949-9.697-10.05c0-6.101,3.949-10.015,9.697-10.015
		c5.537,0,9.451,3.844,9.451,9.556c0,0.67-0.035,1.305-0.143,1.976h-14.847c0.283,3.208,2.574,5.147,5.537,5.147
		c2.469,0,3.844-1.198,4.584-2.715h4.338C347.724,55.386,344.656,58.101,339.896,58.101z M334.394,46.322h10.756
		c-0.07-2.997-2.434-4.901-5.43-4.901C337.003,41.421,334.818,43.255,334.394,46.322z"/>
	<path fill="#FFFFFF" d="M367.08,46.922c0-3.562-1.938-5.395-4.865-5.395c-2.963,0-4.901,1.833-4.901,5.395v10.861h-4.021v-19.43
		h4.021v2.222c1.306-1.587,3.455-2.539,5.783-2.539c4.549,0,7.969,2.856,7.969,8.286v11.461h-3.983V46.922H367.08z"/>
</g>
<rect x="41.971" y="97.18" fill="none" width="67.114" height="35.11"/>
<rect y="0.119" fill="none" width="537.982" height="160.883"/>
<g>
	<g>
		<g>
			<g>
				<defs>
					<path id="SVGID_5_" d="M31.635,33.467c-1.128,1.192-1.796,3.05-1.796,5.45v85.789c0,2.405,0.667,4.258,1.796,5.452l0.281,0.275
						L79.979,82.38v-0.567v-0.573L31.916,33.187L31.635,33.467z"/>
				</defs>
				<clipPath id="SVGID_6_">
					<use xlink:href="#SVGID_5_"  overflow="visible"/>
				</clipPath>
				
					<linearGradient id="SVGID_7_" gradientUnits="userSpaceOnUse" x1="-476.3647" y1="216.71" x2="-475.3997" y2="216.71" gradientTransform="matrix(-67.5072 67.5072 -67.5072 -67.5072 -17441.2891 46836.9141)">
					<stop  offset="0" style="stop-color:#4696D2"/>
					<stop  offset="0.0066" style="stop-color:#4598D3"/>
					<stop  offset="0.2601" style="stop-color:#3FB9EB"/>
					<stop  offset="0.5122" style="stop-color:#4AC1ED"/>
					<stop  offset="0.7604" style="stop-color:#5CC4E6"/>
					<stop  offset="1" style="stop-color:#60C4E5"/>
				</linearGradient>
				<polygon clip-path="url(#SVGID_6_)" fill="url(#SVGID_7_)" points="54.909,8.116 -18.786,81.813 54.909,155.505 128.604,81.813 
									"/>
			</g>
		</g>
	</g>
	<g>
		<g>
			<g>
				<defs>
					<path id="SVGID_8_" d="M79.979,81.24v1.141L95.997,98.41l0.364-0.211l18.982-10.784c5.423-3.08,5.423-8.126,0-11.204
						L96.361,65.427L96,65.219L79.979,81.24z"/>
				</defs>
				<clipPath id="SVGID_9_">
					<use xlink:href="#SVGID_8_"  overflow="visible"/>
				</clipPath>
				
					<linearGradient id="SVGID_10_" gradientUnits="userSpaceOnUse" x1="-480.561" y1="218.8848" x2="-479.5981" y2="218.8848" gradientTransform="matrix(-97.332 0 0 -97.332 -46651.6328 21386.2559)">
					<stop  offset="0" style="stop-color:#FFE005"/>
					<stop  offset="0.4087" style="stop-color:#FBBC0F"/>
					<stop  offset="0.7754" style="stop-color:#F7A418"/>
					<stop  offset="1" style="stop-color:#F59A1A"/>
				</linearGradient>
				<rect x="79.979" y="65.22" clip-path="url(#SVGID_9_)" fill="url(#SVGID_10_)" width="40.787" height="33.19"/>
			</g>
		</g>
	</g>
	<g>
		<g>
			<g>
				<defs>
					<path id="SVGID_11_" d="M31.635,130.159c1.784,1.89,4.738,2.125,8.061,0.237l56.666-32.201L79.979,81.813L31.635,130.159z"/>
				</defs>
				<clipPath id="SVGID_12_">
					<use xlink:href="#SVGID_11_"  overflow="visible"/>
				</clipPath>
				
					<linearGradient id="SVGID_13_" gradientUnits="userSpaceOnUse" x1="-476.2769" y1="218.3535" x2="-475.3113" y2="218.3535" gradientTransform="matrix(-91.5612 91.5612 -91.5612 -91.5612 -23531.9121 63688.3594)">
					<stop  offset="0" style="stop-color:#E8404A"/>
					<stop  offset="1" style="stop-color:#C31262"/>
				</linearGradient>
				<polygon clip-path="url(#SVGID_12_)" fill="url(#SVGID_13_)" points="63.999,49.447 6.398,107.048 63.999,164.646 
					121.597,107.048 				"/>
			</g>
		</g>
	</g>
	<g>
		<g>
			<g>
				<defs>
					<path id="SVGID_14_" d="M31.635,33.467L79.98,81.811l16.381-16.384L39.695,33.228c-1.56-0.886-3.038-1.307-4.348-1.307
						C33.856,31.921,32.582,32.463,31.635,33.467"/>
				</defs>
				<clipPath id="SVGID_15_">
					<use xlink:href="#SVGID_14_"  overflow="visible"/>
				</clipPath>
				
					<linearGradient id="SVGID_16_" gradientUnits="userSpaceOnUse" x1="-465.6543" y1="222.3252" x2="-464.6899" y2="222.3252" gradientTransform="matrix(40.8644 40.8644 -40.8644 40.8644 28129.6523 9952.1211)">
					<stop  offset="0" style="stop-color:#32A071"/>
					<stop  offset="0.0685" style="stop-color:#30A771"/>
					<stop  offset="0.4762" style="stop-color:#4FB26F"/>
					<stop  offset="0.8009" style="stop-color:#5FB568"/>
					<stop  offset="1" style="stop-color:#64B664"/>
				</linearGradient>
				<polygon clip-path="url(#SVGID_15_)" fill="url(#SVGID_16_)" points="6.69,56.866 63.999,114.174 121.306,56.866 63.999,-0.442 
									"/>
			</g>
		</g>
	</g>
	<g>
		<g>
			<g>
				<defs>
					<rect id="SVGID_17_" x="-8.849" y="4.225" width="518.864" height="155.167"/>
				</defs>
				<clipPath id="SVGID_18_">
					<use xlink:href="#SVGID_17_"  overflow="visible"/>
				</clipPath>
				<g clip-path="url(#SVGID_18_)">
					<g>
						<g>
							<g>
								<defs>
									<rect id="SVGID_19_" x="31.629" y="97.836" width="64.731" height="33.864"/>
								</defs>
								<clipPath id="SVGID_20_">
									<use xlink:href="#SVGID_19_"  overflow="visible"/>
								</clipPath>
								<g opacity="0.2" clip-path="url(#SVGID_20_)" enable-background="new    ">
									<g>
										<g>
											<defs>
												<rect id="SVGID_21_" x="31.631" y="97.836" width="64.729" height="33.864"/>
											</defs>
											<clipPath id="SVGID_22_">
												<use xlink:href="#SVGID_21_"  overflow="visible"/>
											</clipPath>
											<path clip-path="url(#SVGID_22_)" fill="#010202" d="M96,97.836l-56.31,31.992c-3.15,1.788-5.963,1.67-7.77,0.042
												l-0.291,0.292l0.287,0.275h0.004c1.808,1.629,4.62,1.75,7.77-0.041l56.67-32.201L96,97.836z"/>
										</g>
									</g>
								</g>
							</g>
							<g>
								<g>
									<g>
										<defs>
											<rect id="SVGID_23_" x="-8.849" y="4.225" width="518.864" height="155.167"/>
										</defs>
										<clipPath id="SVGID_24_">
											<use xlink:href="#SVGID_23_"  overflow="visible"/>
										</clipPath>
										<g clip-path="url(#SVGID_24_)">
											<g>
												<g>
													<g>
														<defs>
															<rect id="SVGID_25_" x="29.837" y="124.143" width="2.085" height="6.017"/>
														</defs>
														<clipPath id="SVGID_26_">
															<use xlink:href="#SVGID_25_"  overflow="visible"/>
														</clipPath>
														<g opacity="0.12" clip-path="url(#SVGID_26_)" enable-background="new    ">
															<g>
																<g>
																	<defs>
																		<rect id="SVGID_27_" x="29.837" y="124.143" width="2.083" height="6.017"/>
																	</defs>
																	<clipPath id="SVGID_28_">
																		<use xlink:href="#SVGID_27_"  overflow="visible"/>
																	</clipPath>
																	<path clip-path="url(#SVGID_28_)" fill="#010202" d="M31.632,129.594c-1.128-1.197-1.792-3.05-1.792-5.451v0.564
																		c0,2.4,0.664,4.258,1.792,5.451l0.291-0.288L31.632,129.594z"/>
																</g>
															</g>
														</g>
													</g>
													<g>
														<g>
															<g>
																<defs>
																	<rect id="SVGID_29_" x="-8.849" y="4.225" width="518.864" height="155.167"/>
																</defs>
																<clipPath id="SVGID_30_">
																	<use xlink:href="#SVGID_29_"  overflow="visible"/>
																</clipPath>
																<g clip-path="url(#SVGID_30_)">
																	<g>
																		<g>
																			<g>
																				<defs>
																					<rect id="SVGID_31_" x="96" y="81.813" width="23.408" height="16.385"/>
																				</defs>
																				<clipPath id="SVGID_32_">
																					<use xlink:href="#SVGID_31_"  overflow="visible"/>
																				</clipPath>
																				<g opacity="0.12" clip-path="url(#SVGID_32_)" enable-background="new    ">
																					<g>
																						<g>
																							<defs>
																								<rect id="SVGID_33_" x="96" y="81.813" width="23.408" height="16.385"/>
																							</defs>
																							<clipPath id="SVGID_34_">
																								<use xlink:href="#SVGID_33_"  overflow="visible"/>
																							</clipPath>
																							<path clip-path="url(#SVGID_34_)" fill="#010202" d="M115.341,86.848L96,97.836l0.36,0.359l18.981-10.785
																								c2.711-1.537,4.065-3.568,4.065-5.594C119.177,83.648,117.799,85.448,115.341,86.848"/>
																						</g>
																					</g>
																				</g>
																			</g>
																			<g>
																				<g>
																					<g>
																						<defs>
																							<rect id="SVGID_35_" x="-8.849" y="4.225" width="518.864" height="155.167"/>
																						</defs>
																						<clipPath id="SVGID_36_">
																							<use xlink:href="#SVGID_35_"  overflow="visible"/>
																						</clipPath>
																						<g clip-path="url(#SVGID_36_)">
																							<g>
																								<g>
																									<g>
																										<defs>
																											<rect id="SVGID_37_" x="29.834" y="31.924" width="89.573" height="49.891"/>
																										</defs>
																										<clipPath id="SVGID_38_">
																											<use xlink:href="#SVGID_37_"  overflow="visible"/>
																										</clipPath>
																										<g opacity="0.25" clip-path="url(#SVGID_38_)" enable-background="new    ">
																											<g>
																												<g>
																													<path fill="#FFFFFF" d="M39.692,33.797l75.647,42.981c2.46,1.398,3.841,3.197,4.069,5.037
																														c0-2.031-1.355-4.062-4.069-5.602L39.692,33.232c-5.419-3.08-9.857-0.527-9.857,5.687v0.563
																														C29.834,33.278,34.272,30.717,39.692,33.797"/>
																												</g>
																											</g>
																										</g>
																									</g>
																								</g>
																							</g>
																						</g>
																					</g>
																				</g>
																			</g>
																		</g>
																	</g>
																</g>
															</g>
														</g>
													</g>
												</g>
											</g>
										</g>
									</g>
								</g>
							</g>
						</g>
					</g>
				</g>
			</g>
		</g>
	</g>
</g>
<rect x="28.837" y="31.924" fill="none" width="89.571" height="49.889"/>
<g>
	<g>
		<g>
			<defs>
				<rect id="SVGID_39_" x="133.689" y="70.768" width="324.409" height="65.164"/>
			</defs>
			<clipPath id="SVGID_40_">
				<use xlink:href="#SVGID_39_"  overflow="visible"/>
			</clipPath>
			<path clip-path="url(#SVGID_40_)" fill="#FFFFFF" d="M237.374,88.773c-9.003,0-16.339,6.842-16.339,16.274
				c0,9.369,7.336,16.272,16.339,16.272c9,0,16.332-6.905,16.332-16.272C253.703,95.615,246.372,88.773,237.374,88.773
				 M237.374,114.909c-4.937,0-9.191-4.069-9.191-9.861c0-5.86,4.257-9.866,9.191-9.866c4.929,0,9.179,4.004,9.179,9.866
				C246.553,110.84,242.299,114.909,237.374,114.909 M201.727,88.773c-8.999,0-16.333,6.842-16.333,16.274
				c0,9.369,7.335,16.272,16.333,16.272c9,0,16.339-6.905,16.339-16.272C218.068,95.615,210.73,88.773,201.727,88.773
				 M201.727,114.909c-4.927,0-9.183-4.069-9.183-9.861c0-5.86,4.257-9.866,9.183-9.866c4.932,0,9.19,4.004,9.19,9.866
				C210.917,110.84,206.659,114.909,201.727,114.909 M159.337,93.761v6.91h16.523c-0.496,3.882-1.792,6.72-3.761,8.688
				c-2.406,2.405-6.169,5.056-12.763,5.056c-10.176,0-18.128-8.199-18.128-18.366c0-10.176,7.951-18.374,18.128-18.374
				c5.488,0,9.495,2.16,12.45,4.931l4.872-4.867c-4.132-3.946-9.62-6.969-17.323-6.969c-13.932,0-25.646,11.343-25.646,25.28
				c0,13.931,11.714,25.271,25.646,25.271c7.519,0,13.19-2.466,17.63-7.089c4.563-4.561,5.981-10.974,5.981-16.154
				c0-1.602-0.123-3.078-0.373-4.315L159.337,93.761L159.337,93.761L159.337,93.761z M332.714,99.128
				c-1.356-3.64-5.486-10.356-13.933-10.356c-8.383,0-15.356,6.594-15.356,16.275c0,9.121,6.91,16.273,16.156,16.273
				c7.454,0,11.774-4.56,13.563-7.213l-5.55-3.699c-1.852,2.714-4.379,4.497-8.014,4.497c-3.637,0-6.228-1.663-7.891-4.93
				l21.759-8.997L332.714,99.128z M310.52,104.553c-0.183-6.284,4.865-9.494,8.515-9.494c2.831,0,5.237,1.415,6.037,3.452
				L310.52,104.553z M292.826,120.335h7.152v-47.84h-7.152V120.335z M281.109,92.409h-0.241c-1.603-1.909-4.689-3.635-8.566-3.635
				c-8.143,0-15.601,7.149-15.601,16.337c0,9.121,7.458,16.211,15.601,16.211c3.877,0,6.964-1.727,8.566-3.701h0.243v2.344
				c0,6.226-3.326,9.56-8.688,9.56c-4.377,0-7.089-3.146-8.204-5.801l-6.225,2.593c1.79,4.316,6.534,9.615,14.43,9.615
				c8.38,0,15.473-4.933,15.473-16.948V89.755h-6.786v2.654H281.109L281.109,92.409z M272.915,114.909c-4.931,0-9.06-4.128-9.06-9.8
				c0-5.729,4.131-9.928,9.06-9.928c4.868,0,8.687,4.197,8.687,9.928C281.603,110.78,277.783,114.909,272.915,114.909
				 M366.216,72.499h-17.112v47.836h7.137V102.21h9.974c7.911,0,15.69-5.732,15.69-14.857
				C381.905,78.226,374.127,72.499,366.216,72.499 M366.393,95.554h-10.152V79.155h10.152c5.342,0,8.374,4.418,8.374,8.2
				C374.765,91.06,371.734,95.554,366.393,95.554 M410.528,88.683c-5.176,0-10.525,2.277-12.745,7.322l6.336,2.649
				c1.354-2.649,3.882-3.51,6.526-3.51c3.691,0,7.444,2.218,7.508,6.159v0.491c-1.293-0.739-4.063-1.847-7.448-1.847
				c-6.832,0-13.782,3.758-13.782,10.771c0,6.401,5.601,10.521,11.877,10.521c4.796,0,7.446-2.151,9.104-4.677h0.25v3.693h6.894
				v-18.341C425.048,93.42,418.704,88.683,410.528,88.683 M409.66,114.899c-2.338,0-5.595-1.166-5.595-4.063
				c0-3.692,4.061-5.108,7.565-5.108c3.137,0,4.619,0.683,6.522,1.604C417.597,111.763,413.786,114.899,409.66,114.899
				 M450.155,89.729l-8.185,20.742h-0.245l-8.495-20.742h-7.688l12.742,28.988l-7.269,16.126h7.45l19.633-45.114H450.155z
				 M385.847,120.335h7.132V72.499h-7.132V120.335z"/>
		</g>
	</g>
</g>
</svg>
