<?xml version="1.0" encoding="utf-8"?>
<!-- Generator: Adobe Illustrator 15.0.0, SVG Export Plug-In . SVG Version: 6.00 Build 0)  -->
<!DOCTYPE svg PUBLIC "-//W3C//DTD SVG 1.1//EN" "http://www.w3.org/Graphics/SVG/1.1/DTD/svg11.dtd">
<svg version="1.1" id="Capa_1" xmlns="http://www.w3.org/2000/svg" xmlns:xlink="http://www.w3.org/1999/xlink" x="0px" y="0px"
	 width="24px" height="20.882px" viewBox="0 0 24 20.882" enable-background="new 0 0 24 20.882" xml:space="preserve">
<g id="Grupo_1" transform="translate(0 0)">
	<path id="Fill_1-2" fill="#FFFFFF" d="M18.836,20.882c0.758,0.001,1.512-0.093,2.246-0.279c0.236-0.059,0.419-0.246,0.47-0.484
		c0.046-0.238-0.054-0.479-0.252-0.617c-0.698-0.494-1.325-1.084-1.86-1.754c-0.076-0.1-0.148-0.188-0.213-0.279
		c1.422-0.848,2.625-2.018,3.512-3.414C23.554,12.751,23.99,11.25,24,9.713C24,4.357,18.617,0,12,0S0,4.357,0,9.713
		s5.383,9.71,12,9.71c0.518,0,1.033-0.025,1.548-0.078C15.133,20.341,16.965,20.875,18.836,20.882z M12,1.243
		c5.9,0,10.7,3.8,10.7,8.47c0,2.807-1.757,5.429-4.7,7.013c-0.152,0.08-0.264,0.219-0.311,0.385
		c-0.043,0.164-0.017,0.338,0.074,0.48c0.199,0.316,0.417,0.621,0.651,0.914c0.313,0.395,0.657,0.766,1.024,1.111
		c-0.193,0.014-0.399,0.022-0.605,0.022c-1.694-0.011-3.348-0.518-4.758-1.457c-0.109-0.071-0.236-0.108-0.366-0.108
		c-0.026-0.002-0.054-0.002-0.081,0c-0.54,0.068-1.084,0.104-1.629,0.108c-5.9,0-10.7-3.8-10.7-8.468C1.3,5.046,6.1,1.243,12,1.243z
		"/>
	<g>
		<defs>
			<path id="SVGID_1_" d="M18.836,20.882c0.758,0.001,1.512-0.093,2.246-0.279c0.236-0.059,0.419-0.246,0.47-0.484
				c0.046-0.238-0.054-0.479-0.252-0.617c-0.698-0.494-1.325-1.084-1.86-1.754c-0.076-0.1-0.148-0.188-0.213-0.279
				c1.422-0.848,2.625-2.018,3.512-3.414C23.554,12.751,23.99,11.25,24,9.713C24,4.357,18.617,0,12,0S0,4.357,0,9.713
				s5.383,9.71,12,9.71c0.518,0,1.033-0.025,1.548-0.078C15.133,20.341,16.965,20.875,18.836,20.882z M12,1.243
				c5.9,0,10.7,3.8,10.7,8.47c0,2.807-1.757,5.429-4.7,7.013c-0.152,0.08-0.264,0.219-0.311,0.385
				c-0.043,0.164-0.017,0.338,0.074,0.48c0.199,0.316,0.417,0.621,0.651,0.914c0.313,0.395,0.657,0.766,1.024,1.111
				c-0.193,0.014-0.399,0.022-0.605,0.022c-1.694-0.011-3.348-0.518-4.758-1.457c-0.109-0.071-0.236-0.108-0.366-0.108
				c-0.026-0.002-0.054-0.002-0.081,0c-0.54,0.068-1.084,0.104-1.629,0.108c-5.9,0-10.7-3.8-10.7-8.468
				C1.3,5.046,6.1,1.243,12,1.243z"/>
		</defs>
		<use xlink:href="#SVGID_1_"  overflow="visible" fill="#FFFFFF"/>
		<clipPath id="SVGID_2_">
			<use xlink:href="#SVGID_1_"  overflow="visible"/>
		</clipPath>
		<g id="Enmascarar_grupo_6" clip-path="url(#SVGID_2_)">
			<g id="bg_fill_gris" transform="translate(0 -1.504)">
				<path id="Rectangle" fill="#FFFFFF" d="M0,0h24v23H0V0z"/>
			</g>
		</g>
	</g>
</g>
</svg>
