<?xml version="1.0" encoding="utf-8"?>
<!-- Generator: Adobe Illustrator 15.0.0, SVG Export Plug-In . SVG Version: 6.00 Build 0)  -->
<!DOCTYPE svg PUBLIC "-//W3C//DTD SVG 1.1//EN" "http://www.w3.org/Graphics/SVG/1.1/DTD/svg11.dtd">
<svg version="1.1" id="ic_buscador_copy_4" xmlns="http://www.w3.org/2000/svg" xmlns:xlink="http://www.w3.org/1999/xlink" x="0px"
	 y="0px" width="21.3px" height="21.085px" viewBox="0 0 21.3 21.085" enable-background="new 0 0 21.3 21.085"
	 xml:space="preserve">
<g id="Grupo_2" transform="translate(1.703 0.958)">
	<path id="Combined_Shape-2" fill="#FFFFFF" d="M8.948,20.127c3.356,0.016,6.704-0.324,9.987-1.01
		c0.221-0.046,0.396-0.214,0.451-0.433c0.141-0.604,0.211-1.224,0.211-1.843c-0.148-3.77-2.557-7.076-6.1-8.373
		c0.912-1.019,1.418-2.337,1.422-3.705C14.847,1.54,12.175-1.02,8.948-0.957C5.721-1.02,3.051,1.539,2.977,4.767
		c0.003,1.367,0.509,2.686,1.42,3.705c-3.542,1.296-5.951,4.603-6.1,8.372c0,0.619,0.071,1.236,0.212,1.841
		c0.054,0.219,0.229,0.387,0.449,0.433C2.243,19.803,5.593,20.143,8.948,20.127z M8.948,0.183c2.586-0.051,4.725,1.999,4.782,4.584
		c-0.006,1.359-0.627,2.642-1.688,3.491c-0.162,0.129-0.24,0.339-0.199,0.543c0.043,0.206,0.197,0.372,0.4,0.431
		c3.686,1.177,6.164,4.235,6.164,7.61c0,0.418-0.037,0.832-0.111,1.242c-3.078,0.612-6.209,0.916-9.348,0.899
		C5.809,19,2.677,18.697-0.402,18.084c-0.073-0.41-0.11-0.824-0.111-1.242c0-3.377,2.479-6.434,6.169-7.61
		c0.202-0.06,0.355-0.225,0.4-0.431c0.04-0.204-0.038-0.413-0.2-0.543c-1.06-0.85-1.68-2.132-1.687-3.491
		C4.228,2.183,6.365,0.133,8.948,0.183z M1.97,6.571c0.321,0.007,0.586-0.248,0.594-0.569V2.584C2.551,2.255,2.273,2,1.945,2.013
		c-0.31,0.013-0.558,0.261-0.57,0.57v3.419C1.383,6.324,1.649,6.578,1.97,6.571z M15.916,6.571c0.322,0.007,0.588-0.248,0.596-0.569
		V2.584c-0.014-0.328-0.291-0.583-0.619-0.57c-0.309,0.013-0.557,0.261-0.568,0.57v3.419C15.33,6.323,15.595,6.578,15.916,6.571z"/>
	<g>
		<g>
			<path id="SVGID_1_" fill="#FFFFFF" d="M8.948,20.127c3.356,0.016,6.704-0.324,9.987-1.01c0.221-0.046,0.396-0.214,0.451-0.433
				c0.141-0.604,0.211-1.224,0.211-1.843c-0.148-3.77-2.557-7.076-6.1-8.373c0.912-1.019,1.418-2.337,1.422-3.705
				C14.847,1.54,12.175-1.02,8.948-0.957C5.721-1.02,3.051,1.539,2.977,4.767c0.003,1.367,0.509,2.686,1.42,3.705
				c-3.542,1.296-5.951,4.603-6.1,8.372c0,0.619,0.071,1.236,0.212,1.841c0.054,0.219,0.229,0.387,0.449,0.433
				C2.243,19.803,5.593,20.143,8.948,20.127z M8.948,0.183c2.586-0.051,4.725,1.999,4.782,4.584
				c-0.006,1.359-0.627,2.642-1.688,3.491c-0.162,0.129-0.24,0.339-0.199,0.543c0.043,0.206,0.197,0.372,0.4,0.431
				c3.686,1.177,6.164,4.235,6.164,7.61c0,0.418-0.037,0.832-0.111,1.242c-3.078,0.612-6.209,0.916-9.348,0.899
				C5.809,19,2.677,18.697-0.402,18.084c-0.073-0.41-0.11-0.824-0.111-1.242c0-3.377,2.479-6.434,6.169-7.61
				c0.202-0.06,0.355-0.225,0.4-0.431c0.04-0.204-0.038-0.413-0.2-0.543c-1.06-0.85-1.68-2.132-1.687-3.491
				C4.228,2.183,6.365,0.133,8.948,0.183z M1.97,6.571c0.321,0.007,0.586-0.248,0.594-0.569V2.584C2.551,2.255,2.273,2,1.945,2.013
				c-0.31,0.013-0.558,0.261-0.57,0.57v3.419C1.383,6.324,1.649,6.578,1.97,6.571z M15.916,6.571
				c0.322,0.007,0.588-0.248,0.596-0.569V2.584c-0.014-0.328-0.291-0.583-0.619-0.57c-0.309,0.013-0.557,0.261-0.568,0.57v3.419
				C15.33,6.323,15.595,6.578,15.916,6.571z"/>
		</g>
		<g>
			<defs>
				<path id="SVGID_2_" d="M8.948,20.127c3.356,0.016,6.704-0.324,9.987-1.01c0.221-0.046,0.396-0.214,0.451-0.433
					c0.141-0.604,0.211-1.224,0.211-1.843c-0.148-3.77-2.557-7.076-6.1-8.373c0.912-1.019,1.418-2.337,1.422-3.705
					C14.847,1.54,12.175-1.02,8.948-0.957C5.721-1.02,3.051,1.539,2.977,4.767c0.003,1.367,0.509,2.686,1.42,3.705
					c-3.542,1.296-5.951,4.603-6.1,8.372c0,0.619,0.071,1.236,0.212,1.841c0.054,0.219,0.229,0.387,0.449,0.433
					C2.243,19.803,5.593,20.143,8.948,20.127z M8.948,0.183c2.586-0.051,4.725,1.999,4.782,4.584
					c-0.006,1.359-0.627,2.642-1.688,3.491c-0.162,0.129-0.24,0.339-0.199,0.543c0.043,0.206,0.197,0.372,0.4,0.431
					c3.686,1.177,6.164,4.235,6.164,7.61c0,0.418-0.037,0.832-0.111,1.242c-3.078,0.612-6.209,0.916-9.348,0.899
					C5.809,19,2.677,18.697-0.402,18.084c-0.073-0.41-0.11-0.824-0.111-1.242c0-3.377,2.479-6.434,6.169-7.61
					c0.202-0.06,0.355-0.225,0.4-0.431c0.04-0.204-0.038-0.413-0.2-0.543c-1.06-0.85-1.68-2.132-1.687-3.491
					C4.228,2.183,6.365,0.133,8.948,0.183z M1.97,6.571c0.321,0.007,0.586-0.248,0.594-0.569V2.584C2.551,2.255,2.273,2,1.945,2.013
					c-0.31,0.013-0.558,0.261-0.57,0.57v3.419C1.383,6.324,1.649,6.578,1.97,6.571z M15.916,6.571
					c0.322,0.007,0.588-0.248,0.596-0.569V2.584c-0.014-0.328-0.291-0.583-0.619-0.57c-0.309,0.013-0.557,0.261-0.568,0.57v3.419
					C15.33,6.323,15.595,6.578,15.916,6.571z"/>
			</defs>
			<clipPath id="SVGID_3_">
				<use xlink:href="#SVGID_2_"  overflow="visible"/>
			</clipPath>
			<g id="Enmascarar_grupo_7" clip-path="url(#SVGID_3_)">
				<g id="bg_fill_gris" transform="translate(-1.703 -0.958)">
					<path id="Rectangle" fill="#FFFFFF" d="M-1.7-0.957h24v23h-24V-0.957z"/>
				</g>
			</g>
		</g>
	</g>
</g>
</svg>
