<?xml version="1.0" encoding="utf-8"?>
<!-- Generator: Adobe Illustrator 15.0.0, SVG Export Plug-In . SVG Version: 6.00 Build 0)  -->
<!DOCTYPE svg PUBLIC "-//W3C//DTD SVG 1.1//EN" "http://www.w3.org/Graphics/SVG/1.1/DTD/svg11.dtd">
<svg version="1.1" id="Grupo_3" xmlns="http://www.w3.org/2000/svg" xmlns:xlink="http://www.w3.org/1999/xlink" x="0px" y="0px"
	 width="15.809px" height="21.083px" viewBox="0 0 15.809 21.083" enable-background="new 0 0 15.809 21.083" xml:space="preserve">
<path id="Combined_Shape-2" fill="#FFFFFF" d="M7.908,21.083c0.178,0,0.346-0.079,0.459-0.215c0.2-0.252,2.036-2.541,3.836-5.281
	c2.391-3.642,3.605-6.337,3.605-8.011c-0.099-4.27-3.631-7.656-7.9-7.574c-4.27-0.082-7.802,3.305-7.9,7.574
	C0,11.597,7.141,20.491,7.445,20.868C7.559,21.004,7.729,21.083,7.908,21.083z M7.908,1.112c3.644-0.07,6.657,2.82,6.74,6.463
	c0,3.3-6.052,11.148-6.742,12.032C6.325,17.569,1.16,10.678,1.16,7.575C1.243,3.929,4.261,1.038,7.908,1.112z M7.908,11.561
	c2.232,0.042,4.079-1.729,4.13-3.961c-0.05-2.233-1.896-4.005-4.13-3.963C5.674,3.593,3.824,5.365,3.773,7.599
	C3.824,9.833,5.674,11.606,7.908,11.561z M7.908,4.75c1.574-0.059,2.897,1.169,2.957,2.743c0.059,1.574-1.169,2.898-2.743,2.957
	c-0.071,0.002-0.143,0.002-0.214,0C6.334,10.509,5.01,9.281,4.951,7.707C4.892,6.133,6.121,4.809,7.694,4.75
	C7.765,4.747,7.837,4.747,7.908,4.75z"/>
<g>
	<defs>
		<path id="SVGID_1_" d="M7.908,21.083c0.178,0,0.346-0.079,0.459-0.215c0.2-0.252,2.036-2.541,3.836-5.281
			c2.391-3.642,3.605-6.337,3.605-8.011c-0.099-4.27-3.631-7.656-7.9-7.574c-4.27-0.082-7.802,3.305-7.9,7.574
			C0,11.597,7.141,20.491,7.445,20.868C7.559,21.004,7.729,21.083,7.908,21.083z M7.908,1.112c3.644-0.07,6.657,2.82,6.74,6.463
			c0,3.3-6.052,11.148-6.742,12.032C6.325,17.569,1.16,10.678,1.16,7.575C1.243,3.929,4.261,1.038,7.908,1.112z M7.908,11.561
			c2.232,0.042,4.079-1.729,4.13-3.961c-0.05-2.233-1.896-4.005-4.13-3.963C5.674,3.593,3.824,5.365,3.773,7.599
			C3.824,9.833,5.674,11.606,7.908,11.561z M7.908,4.75c1.574-0.059,2.897,1.169,2.957,2.743c0.059,1.574-1.169,2.898-2.743,2.957
			c-0.071,0.002-0.143,0.002-0.214,0C6.334,10.509,5.01,9.281,4.951,7.707C4.892,6.133,6.121,4.809,7.694,4.75
			C7.765,4.747,7.837,4.747,7.908,4.75z"/>
	</defs>
	<use xlink:href="#SVGID_1_"  overflow="visible" fill="#FFFFFF"/>
	<clipPath id="SVGID_2_">
		<use xlink:href="#SVGID_1_"  overflow="visible"/>
	</clipPath>
	<g id="Enmascarar_grupo_8" clip-path="url(#SVGID_2_)">
		<g id="bg_fill_gris" transform="translate(-4.192 -0.958)">
			<path id="Rectangle" fill="#FFFFFF" d="M0,0h24v23H0V0z"/>
		</g>
	</g>
</g>
</svg>
