<?xml version="1.0" encoding="utf-8"?>
<!-- Generator: Adobe Illustrator 15.0.0, SVG Export Plug-In . SVG Version: 6.00 Build 0)  -->
<!DOCTYPE svg PUBLIC "-//W3C//DTD SVG 1.1//EN" "http://www.w3.org/Graphics/SVG/1.1/DTD/svg11.dtd">
<svg version="1.1" id="Capa_1" xmlns="http://www.w3.org/2000/svg" xmlns:xlink="http://www.w3.org/1999/xlink" x="0px" y="0px"
	 width="35px" height="42px" viewBox="0 0 35 42" enable-background="new 0 0 35 42" xml:space="preserve">
<path fill="#8240B5" d="M29.874,5.126C26.592,1.844,22.142,0,17.5,0C12.859,0,8.408,1.844,5.126,5.126C1.844,8.407,0,12.86,0,17.5
	c0,3.043,1.135,6.083,2.686,8.842c1.562,2.776,3.62,5.398,5.639,7.641c2.024,2.25,4.043,4.156,5.552,5.498
	c0.755,0.672,1.388,1.205,1.833,1.571c0.223,0.185,0.398,0.328,0.521,0.425c0.062,0.051,0.108,0.088,0.142,0.113l0.038,0.028
	l0.014,0.013c0.635,0.492,1.52,0.492,2.151,0.002l-1.074-1.383c1.074,1.383,1.076,1.381,1.076,1.381l0.002-0.004l0.012-0.01
	c0,0,0.121-0.092,0.183-0.143c0.123-0.096,0.299-0.238,0.518-0.424c0.445-0.367,1.078-0.9,1.836-1.572
	c1.51-1.34,3.527-3.248,5.549-5.496c2.021-2.242,4.078-4.865,5.643-7.642c1.554-2.76,2.685-5.799,2.685-8.842
	C35,12.86,33.157,8.407,29.874,5.126z M17.5,23.38c-3.249,0-5.879-2.632-5.879-5.88c0-3.247,2.631-5.88,5.879-5.88
	c3.246,0,5.879,2.633,5.879,5.88C23.379,20.748,20.747,23.38,17.5,23.38z"/>
</svg>
