<?xml version="1.0" encoding="utf-8"?>
<!-- Generator: Adobe Illustrator 15.0.0, SVG Export Plug-In . SVG Version: 6.00 Build 0)  -->
<!DOCTYPE svg PUBLIC "-//W3C//DTD SVG 1.1//EN" "http://www.w3.org/Graphics/SVG/1.1/DTD/svg11.dtd">
<svg version="1.1" id="Capa_1" xmlns="http://www.w3.org/2000/svg" xmlns:xlink="http://www.w3.org/1999/xlink" x="0px" y="0px"
	 width="35.88px" height="42px" viewBox="-0.44 0 35.88 42" enable-background="new -0.44 0 35.88 42" xml:space="preserve">
<path fill="#8240B5" d="M17.498,2.625c4.062,0,7.956,1.613,10.827,4.485c2.873,2.871,4.485,6.767,4.491,10.825
	c0,2.663-0.99,5.322-2.351,7.736c-1.368,2.431-3.168,4.726-4.937,6.688c-1.77,1.967-3.534,3.637-4.855,4.81
	c-0.663,0.588-1.217,1.054-1.606,1.375c-0.191,0.163-0.613,0.496-0.613,0.496l-0.013,0.012l-0.001,0.002
	c-0.276,0.215-0.607,0.321-0.939,0.321c-0.333,0-0.665-0.107-0.943-0.323l-0.012-0.011l-0.034-0.025
	c-0.03-0.021-0.07-0.055-0.124-0.099c-0.108-0.085-0.261-0.21-0.456-0.372c-0.389-0.32-0.943-0.787-1.604-1.375
	c-1.32-1.174-3.087-2.842-4.857-4.811c-1.767-1.962-3.568-4.256-4.935-6.686c-1.357-2.414-2.35-5.074-2.35-7.736
	c0-4.06,1.613-7.956,4.485-10.827C9.542,4.238,13.437,2.625,17.498,2.625 M17.498,23.082c2.841,0,5.144-2.303,5.144-5.145
	c0-2.841-2.304-5.145-5.144-5.145c-2.842,0-5.144,2.304-5.144,5.145C12.354,20.779,14.654,23.082,17.498,23.082 M17.498,0
	C12.707,0,8.202,1.866,4.814,5.254C1.426,8.641-0.44,13.146-0.44,17.938c0,2.816,0.904,5.853,2.687,9.023
	c1.295,2.301,3.068,4.708,5.271,7.155c1.528,1.699,3.232,3.387,5.064,5.017c0.565,0.502,1.131,0.987,1.68,1.439
	c0.2,0.165,0.363,0.298,0.481,0.393c0.08,0.064,0.143,0.114,0.191,0.15l0.014,0.012C15.676,41.689,16.582,42,17.5,42
	c0.919,0,1.823-0.311,2.549-0.873l0.031-0.026c0.016-0.014,0.45-0.356,0.669-0.542c0.369-0.304,0.952-0.794,1.665-1.426
	c1.25-1.109,3.143-2.88,5.065-5.018c2.197-2.437,3.972-4.845,5.273-7.154c1.783-3.166,2.688-6.202,2.688-9.025
	c-0.007-4.795-1.874-9.298-5.26-12.682C26.793,1.866,22.289,0,17.498,0L17.498,0z M17.498,20.458c-1.389,0-2.519-1.13-2.519-2.52
	s1.13-2.52,2.519-2.52c1.388,0,2.519,1.13,2.519,2.52S18.886,20.458,17.498,20.458L17.498,20.458z"/>
<circle fill="#8240B5" cx="17.5" cy="17.917" r="4.25"/>
</svg>
