<?xml version="1.0" encoding="utf-8"?>
<!-- Generator: Adobe Illustrator 15.0.0, SVG Export Plug-In . SVG Version: 6.00 Build 0)  -->
<!DOCTYPE svg PUBLIC "-//W3C//DTD SVG 1.1//EN" "http://www.w3.org/Graphics/SVG/1.1/DTD/svg11.dtd">
<svg version="1.1" id="Capa_1" xmlns="http://www.w3.org/2000/svg" xmlns:xlink="http://www.w3.org/1999/xlink" x="0px" y="0px"
	 width="59px" height="15.723px" viewBox="0 0 59 15.723" enable-background="new 0 0 59 15.723" xml:space="preserve">
<g>
	<path fill-rule="evenodd" clip-rule="evenodd" fill="#EAEDEC" d="M40.342,4.298c-0.25,1.647-1.509,1.647-2.726,1.647h-0.692
		L37.41,2.87c0.029-0.185,0.188-0.322,0.378-0.322h0.317c0.828,0,1.61,0,2.013,0.472C40.36,3.302,40.434,3.72,40.342,4.298
		 M39.812,0h-4.589c-0.314,0-0.581,0.229-0.63,0.539l-1.856,11.768c-0.035,0.231,0.144,0.442,0.378,0.442h2.355
		c0.22,0,0.407-0.161,0.441-0.377l0.526-3.336c0.049-0.311,0.315-0.539,0.63-0.539h1.451c3.023,0,4.769-1.463,5.225-4.363
		c0.204-1.268,0.008-2.265-0.586-2.962C42.504,0.406,41.347,0,39.812,0"/>
	<path fill-rule="evenodd" clip-rule="evenodd" fill="#EAEDEC" d="M7.609,4.298C7.358,5.945,6.101,5.945,4.884,5.945H4.191
		L4.678,2.87c0.028-0.185,0.189-0.322,0.377-0.322h0.317c0.828,0,1.611,0,2.014,0.472C7.628,3.302,7.7,3.72,7.609,4.298 M7.08,0
		H2.49C2.177,0,1.909,0.229,1.86,0.539L0.005,12.307c-0.036,0.231,0.144,0.442,0.378,0.442h2.19c0.315,0,0.582-0.229,0.631-0.539
		l0.501-3.174c0.049-0.311,0.315-0.539,0.629-0.539h1.452c3.023,0,4.768-1.463,5.225-4.363c0.204-1.268,0.008-2.265-0.586-2.962
		C9.771,0.406,8.615,0,7.08,0"/>
	<path fill-rule="evenodd" clip-rule="evenodd" fill="#EAEDEC" d="M17.733,8.523c-0.212,1.256-1.208,2.099-2.479,2.099
		c-0.638,0-1.147-0.206-1.476-0.594c-0.325-0.385-0.448-0.933-0.345-1.543c0.198-1.244,1.211-2.115,2.463-2.115
		c0.624,0,1.13,0.208,1.465,0.598C17.698,7.364,17.831,7.916,17.733,8.523 M20.797,4.246H18.6c-0.188,0-0.349,0.136-0.378,0.323
		l-0.097,0.613l-0.153-0.222c-0.476-0.692-1.537-0.921-2.597-0.921c-2.428,0-4.501,1.839-4.904,4.42
		c-0.211,1.287,0.087,2.518,0.817,3.375c0.67,0.79,1.627,1.118,2.768,1.118c1.957,0,3.043-1.257,3.043-1.257L17,12.307
		c-0.037,0.231,0.143,0.441,0.378,0.441h1.979c0.314,0,0.582-0.228,0.631-0.537l1.188-7.523C21.212,4.455,21.032,4.246,20.797,4.246
		"/>
	<path fill-rule="evenodd" clip-rule="evenodd" fill="#EAEDEC" d="M50.466,8.523c-0.211,1.256-1.208,2.099-2.479,2.099
		c-0.639,0-1.148-0.206-1.477-0.594c-0.325-0.385-0.448-0.933-0.345-1.543c0.199-1.244,1.212-2.115,2.463-2.115
		c0.625,0,1.131,0.208,1.465,0.598C50.431,7.364,50.563,7.916,50.466,8.523 M53.529,4.246h-2.197c-0.188,0-0.349,0.136-0.378,0.323
		l-0.098,0.613l-0.152-0.222c-0.477-0.692-1.537-0.921-2.596-0.921c-2.429,0-4.502,1.839-4.905,4.42
		c-0.21,1.287,0.088,2.518,0.817,3.375c0.671,0.79,1.627,1.118,2.767,1.118c1.958,0,3.044-1.257,3.044-1.257l-0.099,0.611
		c-0.036,0.231,0.143,0.441,0.378,0.441h1.979c0.314,0,0.582-0.228,0.63-0.537l1.188-7.523C53.944,4.455,53.766,4.246,53.529,4.246"
		/>
	<defs>
		<filter id="Adobe_OpacityMaskFilter" filterUnits="userSpaceOnUse" x="22.262" y="4.246" width="10.623" height="11.477">
			<feColorMatrix  type="matrix" values="1 0 0 0 0  0 1 0 0 0  0 0 1 0 0  0 0 0 1 0"/>
		</filter>
	</defs>
	<mask maskUnits="userSpaceOnUse" x="22.262" y="4.246" width="10.623" height="11.477" id="SVGID_1_">
		<g filter="url(#Adobe_OpacityMaskFilter)">
			<g>
				<defs>
					<rect id="SVGID_2_" x="22.262" y="4.246" width="10.623" height="11.477"/>
				</defs>
				<clipPath id="SVGID_3_">
					<use xlink:href="#SVGID_2_"  overflow="visible"/>
				</clipPath>
				<rect x="22.197" y="4.246" clip-path="url(#SVGID_3_)" width="10.794" height="11.477"/>
				<g enable-background="new    ">
					<g>
						<defs>
							<rect id="SVGID_4_" x="22.197" y="4.246" width="10.794" height="11.477"/>
						</defs>
						<clipPath id="SVGID_5_" clip-path="url(#SVGID_3_)">
							<use xlink:href="#SVGID_4_"  overflow="visible"/>
						</clipPath>
						
							<rect x="-24.452" y="-4.528" clip-path="url(#SVGID_5_)" fill-rule="evenodd" clip-rule="evenodd" fill="#FFFFFF" width="83.451" height="20.25"/>
					</g>
				</g>
			</g>
		</g>
	</mask>
	<g mask="url(#SVGID_1_)">
		<g>
			<path fill-rule="evenodd" clip-rule="evenodd" fill="#EAEDEC" d="M32.501,4.246h-2.209c-0.21,0-0.408,0.104-0.526,0.279
				l-3.047,4.488l-1.292-4.313c-0.081-0.27-0.329-0.455-0.611-0.455h-2.171c-0.262,0-0.446,0.258-0.362,0.505l2.433,7.139
				l-2.288,3.229c-0.18,0.254,0.002,0.604,0.312,0.604h2.208c0.208,0,0.404-0.103,0.523-0.274l7.345-10.603
				C32.992,4.593,32.811,4.246,32.501,4.246"/>
		</g>
	</g>
	<defs>
		<filter id="Adobe_OpacityMaskFilter_1_" filterUnits="userSpaceOnUse" x="54.231" y="0" width="4.769" height="12.749">
			<feColorMatrix  type="matrix" values="1 0 0 0 0  0 1 0 0 0  0 0 1 0 0  0 0 0 1 0"/>
		</filter>
	</defs>
	<mask maskUnits="userSpaceOnUse" x="54.231" y="0" width="4.769" height="12.749" id="SVGID_6_">
		<g filter="url(#Adobe_OpacityMaskFilter_1_)">
			<g>
				<defs>
					<rect id="SVGID_7_" x="54.23" width="4.769" height="12.749"/>
				</defs>
				<clipPath id="SVGID_8_">
					<use xlink:href="#SVGID_7_"  overflow="visible"/>
				</clipPath>
				<rect x="54.199" clip-path="url(#SVGID_8_)" width="4.833" height="12.748"/>
				<g enable-background="new    ">
					<g>
						<defs>
							<rect id="SVGID_9_" x="54.199" width="4.833" height="12.748"/>
						</defs>
						<clipPath id="SVGID_10_" clip-path="url(#SVGID_8_)">
							<use xlink:href="#SVGID_9_"  overflow="visible"/>
						</clipPath>
						
							<rect x="-24.451" y="-4.529" clip-path="url(#SVGID_10_)" fill-rule="evenodd" clip-rule="evenodd" fill="#FFFFFF" width="83.45" height="20.25"/>
					</g>
				</g>
			</g>
		</g>
	</mask>
	<g mask="url(#SVGID_6_)">
		<g>
			<path fill-rule="evenodd" clip-rule="evenodd" fill="#EAEDEC" d="M56.119,0.324l-1.883,11.983
				c-0.037,0.231,0.143,0.442,0.377,0.442h1.895c0.313,0,0.581-0.229,0.629-0.539l1.858-11.768C59.031,0.21,58.853,0,58.616,0
				h-2.119C56.31,0,56.148,0.139,56.119,0.324"/>
		</g>
	</g>
</g>
</svg>
