<?xml version="1.0" encoding="utf-8"?>
<!-- Generator: Adobe Illustrator 15.0.0, SVG Export Plug-In . SVG Version: 6.00 Build 0)  -->
<!DOCTYPE svg PUBLIC "-//W3C//DTD SVG 1.1//EN" "http://www.w3.org/Graphics/SVG/1.1/DTD/svg11.dtd">
<svg version="1.1" id="Capa_1" xmlns="http://www.w3.org/2000/svg" xmlns:xlink="http://www.w3.org/1999/xlink" x="0px" y="0px"
	 width="1000px" height="486.883px" viewBox="0 0 1000 486.883" enable-background="new 0 0 1000 486.883" xml:space="preserve">
<g>
	<path fill="#F2F2F2" d="M161.976,174.628v-65.334h109.125c0,3.883-0.049,7.714,0.01,11.543c0.155,9.986-0.29,20.034,0.658,29.948
		c3.131,32.781,29.75,60.74,62.261,66.059c41.572,6.8,79.475-19.194,88.036-60.379c8.564-41.207-20.301-82.984-61.857-89.725
		c-16.356-2.653-31.889-0.314-47.083,6.96c-9.718-19.432-19.423-38.833-29.263-58.506c1.308-0.7,2.442-1.381,3.634-1.934
		c69.606-32.292,152.33-3.37,186.671,65.254c26.794,53.543,16.831,118.875-24.927,161.675
		c-29.187,29.915-64.961,44.252-106.646,43.31c-61.735-1.396-116.732-45.244-132.174-105.083c-0.776-3.01-1.954-3.901-5-3.861
		c-13.224,0.171-26.45,0.072-39.676,0.072C164.525,174.628,163.306,174.628,161.976,174.628"/>
	<path fill="#F2F2F2" d="M837.584,109.011v65.414H728.495v-3.385v-29.675c-0.001-38.613-29.885-71.523-68.349-75.269
		c-41.223-4.015-77.46,24.507-83.343,65.596c-5.981,41.777,25.188,81.571,67.098,85.868c14.899,1.528,28.963-1.08,42.654-7.596
		c9.742,19.48,19.448,38.886,29.371,58.726c-4.322,1.875-8.429,3.832-12.66,5.468c-81.016,31.317-171.429-17.661-189.597-102.682
		C497.127,94.054,547.515,17.797,625.229,2.646c73.382-14.305,144.943,30.686,164.248,103.355c0.646,2.428,1.614,3.077,3.994,3.06
		c13.432-0.105,26.863-0.052,40.294-0.051L837.584,109.011L837.584,109.011z"/>
	<path fill="#F2F2F2" d="M946.57,141.968c-0.006,24.121-19.692,43.737-43.745,43.588c-24.001-0.15-43.472-19.581-43.628-43.542
		c-0.158-24.24,19.612-43.85,44.197-43.83C927.264,98.202,946.575,117.787,946.57,141.968"/>
	<path fill="#F2F2F2" d="M53.024,141.932c-0.012-24.245,19.401-43.748,43.547-43.747c24.186,0,43.772,19.463,43.829,43.553
		c0.056,24.037-19.567,43.743-43.635,43.817C72.675,185.63,53.037,166.044,53.024,141.932"/>
	<path fill="#F2F2F2" d="M152.45,451.448H92.04c-1.49,7.843,4.945,19.452,13.422,24.6c11.725,7.118,23.859,4.91,39.625-7.324
		c1.498,1.323,3.033,2.679,4.758,4.201c-7.417,8.456-16.462,13.197-27.66,13.825c-23.187,1.3-40.396-17.736-38.264-42.031
		c0.981-11.18,5.456-20.665,14.426-27.676c15.778-12.332,44.682-9.183,52.037,19.095C151.64,440.962,151.757,446.082,152.45,451.448
		 M144.054,444.806c-0.125-16.311-11.872-28.431-26.91-27.941c-13.54,0.44-26.203,14.324-25.331,27.941H144.054z"/>
	<path fill="#F2F2F2" d="M691.925,468.734c1.599,1.419,3.063,2.721,4.699,4.173c-7.357,8.453-16.328,13.168-27.403,13.835
		c-23.43,1.408-40.37-17.656-38.547-41.444c0.786-10.254,4.455-19.269,12.129-26.251c9.589-8.725,20.953-10.992,33.107-7.053
		c12.699,4.116,19.242,13.959,21.855,26.583c0.831,4.018,0.885,8.196,1.351,12.863h-30.435H638.81
		c-1.394,8.087,5.165,19.729,13.729,24.747C664.486,483.188,677.102,480.838,691.925,468.734 M690.777,444.805
		c0.434-15.363-11.313-27.982-25.856-27.942c-14.101,0.039-26.861,13.472-26.372,27.942H690.777z"/>
	<path fill="#F2F2F2" d="M928.979,451.504h-59.746c-1.104,9.04,5.741,20.434,15.004,25.366c11.785,6.273,24.602,3.571,38.014-8.177
		c0.811,0.679,1.673,1.374,2.504,2.105c0.766,0.675,1.491,1.392,2.374,2.216c-10.364,11.539-23.123,16.108-38.003,12.834
		c-14.409-3.171-23.455-12.741-26.794-27.005c-3.351-14.31-0.616-27.433,9.677-38.531c14.293-15.412,44.729-14.426,54.462,11.716
		C928.749,438.148,929.637,444.48,928.979,451.504 M921.334,444.807c-0.425-13.138-8.674-28.192-26.271-27.949
		c-13.852,0.189-26.497,13.686-26.008,27.949H921.334z"/>
	<path fill="#F2F2F2" d="M310.877,468.65c1.649,1.457,3.122,2.758,4.832,4.268c-6.09,6.946-13.314,11.545-22.357,13.21
		c-25.853,4.758-47.445-15.546-43.137-44.429c2.15-14.424,9.814-25.224,24.12-29.848c19.378-6.263,37.619,4.979,42.31,25.648
		c0.642,2.825,0.896,5.747,1.184,8.64c0.163,1.625,0.03,3.278,0.03,5.238H257.81c-1.383,8.219,5.551,20.095,14.302,25.124
		C281.091,481.665,297.417,482.761,310.877,468.65 M309.829,444.828c0.28-15.928-11.601-28.317-26.57-27.966
		c-13.637,0.32-26.544,14.319-25.631,27.966H309.829z"/>
	<path fill="#F2F2F2" d="M575.719,448.382c0.017,21.44-16.599,38.354-37.683,38.359c-21.077,0.003-37.489-16.654-37.509-38.073
		c-0.021-21.354,16.728-38.429,37.696-38.435C559.233,410.229,575.701,426.983,575.719,448.382 M508.522,448.136
		c0,1.247-0.072,2.499,0.011,3.74c1.201,17.814,18.158,31.132,35.212,27.674c13.264-2.688,22.833-13.623,24.077-27.511
		c1.313-14.637-6.352-27.885-19.057-32.945C528.912,411.184,508.463,425.911,508.522,448.136"/>
	<path fill="#F2F2F2" d="M720.699,412.024h6.956v12.564c0.86-0.934,1.213-1.226,1.455-1.59c7.938-11.96,21.745-14.947,34.543-11.334
		c11.947,3.373,19.008,12.928,19.405,27.106c0.419,14.881,0.098,29.78,0.085,44.672c0,0.4-0.143,0.802-0.249,1.355h-6.91v-3.336
		c0-13.329,0.195-26.664-0.116-39.986c-0.099-4.164-0.892-8.588-2.535-12.388c-5.261-12.162-21.888-16.155-33.979-8.39
		c-7.676,4.93-11.468,12.21-11.556,21.269c-0.124,13.017-0.031,26.034-0.031,39.051v3.675h-7.067
		C720.699,460.634,720.699,436.522,720.699,412.024"/>
	<path fill="#F2F2F2" d="M62.265,484.817h-7.057c0-1.381,0.005-2.608-0.001-3.837c-0.065-14.056,0.216-28.122-0.306-42.16
		c-0.472-12.686-7.732-20.203-19.805-21.826c-11.411-1.533-22.73,5.132-26.393,16.023c-1.234,3.674-1.761,7.726-1.833,11.619
		c-0.228,12.181-0.084,24.367-0.084,36.553v3.578H0v-72.666h6.642v12.871c1.04-1.285,1.612-1.918,2.102-2.607
		c7.977-11.27,20.789-14.167,33.659-10.855c11.574,2.979,19.25,12.469,19.726,25.564C62.705,452.866,62.265,468.696,62.265,484.817"
		/>
	<path fill="#F2F2F2" d="M333.288,475.824c1.4-1.896,2.684-3.636,4.127-5.59c1.147,0.758,2.143,1.432,3.155,2.081
		c8.467,5.438,17.516,8.669,27.75,6.961c4.456-0.743,8.315-2.695,10.869-6.617c3.68-5.646,2.605-12.41-3.208-15.744
		c-4.355-2.497-9.32-3.961-14.073-5.728c-4.765-1.771-9.728-3.054-14.374-5.078c-6.195-2.7-10.495-7.223-10.681-14.439
		c-0.196-7.59,2.871-13.739,9.614-17.299c3.582-1.889,7.745-3.109,11.774-3.635c8.818-1.153,20.95,2.464,28.648,7.984
		c-1.164,1.856-2.346,3.739-3.148,5.021c-6.319-2.118-12.188-4.465-18.263-5.995c-4.67-1.177-9.541-0.698-14.016,1.499
		c-4.322,2.122-7.062,5.402-7.25,10.421c-0.182,4.854,2.598,7.933,6.65,9.606c5.644,2.332,11.529,4.076,17.286,6.145
		c3.318,1.192,6.69,2.306,9.856,3.833c15.976,7.705,11.653,26.232,1.677,32.621c-7.304,4.675-15.225,5.331-23.412,4.039
		C347.844,484.58,340.111,481.428,333.288,475.824"/>
	<path fill="#F2F2F2" d="M998.441,418.558c-1.351,2.138-2.497,3.953-3.3,5.222c-6.21-2.107-11.964-4.408-17.913-5.965
		c-4.675-1.226-9.528-0.797-14.046,1.301c-4.491,2.086-7.327,5.419-7.529,10.559c-0.2,5.009,2.806,8.019,6.936,9.762
		c4.959,2.096,10.167,3.583,15.228,5.445c4.281,1.575,8.683,2.959,12.721,5.031c13.833,7.1,10.558,23.965,2.521,30.457
		c-6.594,5.325-14.173,6.632-22.313,5.891c-9.768-0.891-20.164-5.128-25.958-10.551c1.286-1.736,2.579-3.482,4.033-5.448
		c1.472,0.948,2.824,1.851,4.208,2.703c8.296,5.119,17.151,8.09,26.997,6.24c6.111-1.148,10.835-4.272,12.317-10.836
		c1.022-4.529-0.218-8.563-4.159-10.888c-3.979-2.349-8.392-4.022-12.742-5.655c-4.954-1.859-10.182-3.026-15.055-5.062
		c-9.035-3.771-12.41-8.929-12.025-17.274c0.36-7.831,5.51-14.394,13.701-17.197c10.635-3.641,20.727-1.325,30.559,3.089
		C994.576,416.26,996.399,417.434,998.441,418.558"/>
	<path fill="#F2F2F2" d="M235.317,424.122c-1.784,1.577-3.48,3.077-5.417,4.788c-7.624-8.188-16.657-13.304-28.401-11.543
		c-7.335,1.102-13.244,4.699-17.941,10.373c-10.414,12.58-9.205,32.891,2.578,44.117c10.132,9.653,28.793,13.412,44.774-3.899
		c1.529,1.323,3.07,2.655,4.585,3.966c-5.752,10.664-22.649,17.022-37.191,14.106c-15.791-3.167-27.678-16.811-29.485-33.834
		c-1.712-16.134,7.713-32.333,22.65-38.933C206.339,406.693,223.743,410.817,235.317,424.122"/>
	<path fill="#F2F2F2" d="M813.476,418.573h-10.464v-6.578h10.272v-23.11h7.333v22.88h25.428v6.919h-25.379v3.908
		c0,13.734-0.003,27.471,0,41.204c0.001,12.712,7.718,18.504,20.102,15.068c1.586-0.44,3.138-1.007,5.192-1.673
		c0,1.938,0.156,3.66-0.074,5.328c-0.096,0.699-0.889,1.609-1.575,1.873c-6.763,2.6-13.625,2.88-20.327-0.04
		c-7.478-3.257-10.417-9.559-10.475-17.313c-0.11-14.879-0.033-29.758-0.033-44.638C813.476,421.276,813.476,420.15,813.476,418.573
		"/>
	<path fill="#F2F2F2" d="M459.993,411.817h25.48v6.823h-25.351v3.591c0,14.056-0.009,28.11,0.012,42.167
		c0.001,1.451,0.099,2.914,0.281,4.355c0.744,5.832,4.431,9.699,10.271,10.459c2.448,0.319,4.999,0.329,7.448,0.03
		c2.331-0.285,4.589-1.158,6.892-1.776c0.109,0.152,0.303,0.299,0.313,0.455c0.388,6.29,0.177,6.875-6.082,7.828
		c-3.642,0.555-7.534,0.665-11.14,0.017c-9.857-1.772-15.115-8.721-15.167-19.488c-0.07-14.576-0.019-29.153-0.019-43.729v-3.826
		H442.59v-6.793h10.292v-23.12h7.113C459.993,396.334,459.993,403.873,459.993,411.817"/>
	<rect x="599.877" y="380.625" fill="#F2F2F2" width="6.58" height="104.128"/>
	<rect x="413.241" y="412.106" fill="#F2F2F2" width="6.893" height="72.715"/>
	<rect x="412.339" y="383.561" fill="#F2F2F2" width="8.506" height="9.331"/>
</g>
</svg>
