<?xml version="1.0" encoding="utf-8"?>
<!-- Generator: Adobe Illustrator 15.0.0, SVG Export Plug-In . SVG Version: 6.00 Build 0)  -->
<!DOCTYPE svg PUBLIC "-//W3C//DTD SVG 1.1//EN" "http://www.w3.org/Graphics/SVG/1.1/DTD/svg11.dtd">
<svg version="1.1" id="Capa_1" xmlns="http://www.w3.org/2000/svg" xmlns:xlink="http://www.w3.org/1999/xlink" x="0px" y="0px"
	 width="1000px" height="429.02px" viewBox="0 28.932 1000 429.02" enable-background="new 0 28.932 1000 429.02"
	 xml:space="preserve">
<g>
	<g>
		<path fill="#FFFFFF" d="M77,77.281c-12.237,0-23.407,10.041-23.407,23.471c0,13.427,11.17,24.472,23.407,24.472
			c13.431,0,24.6-11.045,24.6-24.472C101.601,87.321,90.431,77.281,77,77.281z"/>
		<path fill="#FFFFFF" d="M923.063,77.281c-13.431,0-24.476,10.041-24.476,23.471c0,13.427,11.045,24.472,24.476,24.472
			c12.298,0,23.471-11.045,23.471-24.472C946.534,87.321,935.361,77.281,923.063,77.281z"/>
		<path fill="#FFFFFF" d="M394.041,33.728c-5.586-2.258-12.301-2.258-19.017-3.262c0-1.129,0-1.129,0-1.129
			c-4.455,0-8.912,0-13.367,0l0,0c-11.169,0-22.342,0-33.512,3.262c-5.583,1.129-11.169,5.647-13.367,11.169
			c-2.257,5.65-1.128,12.302,2.197,16.82l1.128,1.128c4.458,5.522,11.17,8.912,19.017,7.783c2.193-1.132,5.583-2.261,8.909-2.261
			c0,0,1.132,0,2.197,0c3.39,0,6.715,0,11.169,0l0,0c1.132,0,2.261,0,3.39,0c1.132,0,2.197,0,3.326,0c0,0,0,0,1.132,0
			c1.128,0,2.193,0,3.325,0h1.129c1.129,0,2.261,0,3.326,1.129c22.342,3.39,42.424,14.559,56.919,32.383
			c19.014,22.339,25.729,51.333,20.082,79.198c-6.651,38.027-36.774,68.149-74.74,74.8c-27.929,6.65-56.919-2.258-79.262-20.082
			c-21.21-17.82-34.577-44.678-34.577-72.543c0-10.041,2.197-20.082,4.454-27.865c1.129-2.258,1.129-4.515,2.261-6.776
			c1.064-2.261,2.197-5.522,3.326-8.912c2.197-13.431-3.326-26.733-15.627-31.251c-1.129,0-1.129-1.128-2.257-1.128
			c-3.326-1.132-6.655-2.261-11.17-2.261H141.764c-10.041,0-17.82,7.908-17.82,19.078v2.133c0,9.037,7.78,16.82,16.692,16.82h91.56
			c-6.715,20.082-7.844,41.292-4.458,62.502c10.041,56.858,56.919,101.54,113.838,109.323c5.586,1.126,11.17,1.126,17.821,1.126
			c33.512,0,64.767-13.431,90.431-35.642c28.994-26.861,44.622-64.766,42.424-104.929C488.923,98.491,449.828,50.548,394.041,33.728
			z"/>
		<path fill="#FFFFFF" d="M859.429,83.932h-94.883c-31.254-42.296-82.59-62.502-135.052-52.461
			c-52.462,11.169-93.757,53.59-103.798,106.055c-6.651,39.159,3.39,79.323,29.058,109.441
			c25.668,30.122,62.442,47.946,101.602,47.946c43.425,0,83.588-21.207,108.19-55.723l0,0l0,0c1.126,0,1.126-2.261,2.258-2.261
			c3.39-4.519,5.52-8.911,8.909-15.688l0,0c1.132-1.129,1.132-2.261,1.132-4.394c1.132,0,1.132,0,1.132,0
			c1.126-2.262,1.126-2.262,1.126-4.519c0,0,0,0,1.132,0l0,0c1.132-4.394,3.39-10.041,4.394-15.563
			c2.258-4.518,0-11.17-3.262-16.816c-4.521-4.395-10.041-6.654-16.82-5.525l0,0c-7.783,0-14.563,5.525-15.566,13.305
			c-3.39,12.303-10.041,23.472-17.817,33.513c-17.952,22.339-44.685,35.765-74.807,35.765c-26.861,0-52.462-11.166-70.286-31.247
			c-19.077-21.214-26.86-46.943-23.532-74.805c4.455-41.292,36.835-75.936,78.13-82.587c30.122-5.647,60.373,3.39,82.584,25.604
			l3.39,2.261c0,1.129,0,1.129,0,1.129l1.132,1.129c1.126,1.132,2.13,2.261,3.39,3.389c2.13,3.262,3.262,5.522,4.388,7.784
			c4.394,10.041,8.915,13.427,26.732,12.298h94.889c10.041,0,17.824-7.784,17.824-18.953v-2.257
			C874.995,91.84,868.466,83.932,859.429,83.932z"/>
	</g>
	<g>
		<g>
			<path fill="#FFFFFF" d="M34.641,378.629c-10.041,0-17.885,3.39-23.471,11.173v-10.041H0v77.065h11.169v-43.553
				c0-14.563,8.976-24.604,22.342-24.604c13.367,0,22.339,8.908,22.339,22.339v45.817h10.041v-45.817
				C65.892,390.927,53.593,378.629,34.641,378.629z"/>
			<path fill="#FFFFFF" d="M120.554,378.629c-21.214,0-36.838,16.82-36.838,40.163c0,22.339,16.756,39.159,37.966,39.159
				c15.627,0,24.536-6.779,31.251-13.431l1.132-2.257l-7.847-6.651l-1.065,2.129c-6.715,6.779-14.559,11.174-23.471,11.174
				c-14.495,0-24.536-11.174-26.797-25.602h60.309v-1.132c0-2.258,0-2.258,0-3.39C155.194,395.449,140.635,378.629,120.554,378.629z
				 M119.421,388.67c15.627,0,23.471,13.431,24.604,24.604h-49.14C97.146,399.843,107.187,388.67,119.421,388.67z"/>
			<path fill="#FFFFFF" d="M231.063,436.744c-7.844,7.776-14.495,12.171-23.407,12.171c-15.688,0-27.925-13.303-27.925-31.255
				c0-15.56,12.237-28.99,27.925-28.99c10.041,0,16.695,5.646,22.278,11.173l1.129,2.258l7.844-7.784l-1.128-1.125
				c-6.715-6.779-15.624-14.563-30.123-14.563c-22.339,0-39.095,17.824-39.095,40.163c0,21.214,16.756,39.159,39.095,39.159
				c12.238,0,21.15-4.515,31.251-14.556v-1.132l-6.711-6.651L231.063,436.744z"/>
			<path fill="#FFFFFF" d="M285.725,378.629c-21.21,0-36.777,16.82-36.777,40.163c0,22.339,16.695,39.159,37.906,39.159
				c15.627,0,24.6-6.779,31.251-13.431l1.129-2.257l-7.78-6.651l-1.129,2.129c-6.715,6.779-14.559,11.174-23.471,11.174
				c-14.495,0-24.536-11.174-26.797-25.602h60.309v-1.132c0-2.258,0-2.258,0-3.39C320.365,395.449,305.867,378.629,285.725,378.629z
				 M284.657,388.67c15.627,0,23.407,13.431,24.536,24.604h-49.136C262.317,399.843,272.358,388.67,284.657,388.67z"/>
			<path fill="#FFFFFF" d="M366.112,413.273c-11.169-4.522-18.95-6.779-18.95-13.431s5.583-11.173,14.495-11.173
				c6.715,0,14.495,3.39,21.21,7.783l1.132,1.125l5.519-8.908l-1.065-1.132c-7.844-5.52-17.885-7.777-26.797-7.777
				c-14.495,0-25.668,8.909-25.668,22.34c0,13.43,13.367,17.823,25.668,20.081v1.132c10.041,2.258,17.821,5.52,17.821,12.299
				c0,6.651-5.519,12.298-15.56,12.298c-7.848,0-16.756-3.39-24.604-9.036l-1.129-1.133l-6.651,9.044h1.128
				c8.912,6.651,21.15,11.166,31.255,11.166c15.56,0,26.733-9.036,26.733-22.339C390.651,421.05,378.414,416.663,366.112,413.273z"
				/>
			<rect x="410.733" y="351.896" fill="#FFFFFF" width="12.298" height="13.302"/>
			<rect x="411.861" y="379.761" fill="#FFFFFF" width="10.041" height="77.065"/>
			<path fill="#FFFFFF" d="M462.129,357.415h-10.104v22.346h-11.109v11.166h11.109v44.686c0,13.303,7.844,22.339,21.21,22.339
				c5.586,0,8.976,0,13.431-2.258h1.128v-11.173l-3.386,1.133c-3.329,1.132-6.655,2.257-8.912,2.257
				c-8.912,0-13.367-3.39-13.367-12.298v-44.686h25.665v-11.166h-25.665V357.415z"/>
			<path fill="#FFFFFF" d="M538.002,378.629c-22.347,0-39.038,17.824-39.038,40.163s16.691,39.159,39.038,39.159
				c22.339,0,39.03-16.82,39.03-40.291C577.032,395.449,560.341,378.629,538.002,378.629z M538.002,448.915
				c-15.628,0-27.926-13.303-27.926-31.255c0-15.56,12.298-28.99,27.926-28.99c15.62,0,27.925,13.431,27.925,30.122l0,0
				C565.927,435.612,553.622,448.915,538.002,448.915z"/>
			<rect x="597.114" y="348.507" fill="#FFFFFF" width="11.173" height="108.319"/>
			<path fill="#FFFFFF" d="M665.264,378.629c-21.207,0-36.773,16.82-36.773,40.163c0,22.339,16.692,39.159,37.905,39.159
				c15.561,0,24.604-6.779,31.127-13.431l1.253-2.257l-7.776-6.651l-1.26,2.129c-6.651,6.779-14.435,11.174-23.344,11.174
				c-14.563,0-24.604-11.174-26.86-25.602h60.245v-1.132c0-2.258,0-2.258,0-3.39C699.78,395.449,685.346,378.629,665.264,378.629z
				 M664.139,388.67c15.56,0,23.343,13.431,24.597,24.604h-49.2C641.792,399.843,651.833,388.67,664.139,388.67z"/>
			<path fill="#FFFFFF" d="M753.501,378.629c-10.04,0-19.077,3.39-24.603,11.173v-10.041h-11.167v77.065h11.167v-43.553
				c0-14.563,10.04-24.604,23.343-24.604c13.431,0,21.342,8.908,21.342,22.339v45.817h10.041v-45.817
				C783.624,390.927,772.323,378.629,753.501,378.629z"/>
			<path fill="#FFFFFF" d="M821.529,357.415h-11.173v22.346h-10.041v11.166h10.041v44.686c0,13.303,8.909,22.339,22.34,22.339
				c4.394,0,8.915,0,13.43-2.258l0,0v-11.173l-2.257,1.133c-3.39,1.132-6.779,2.257-10.041,2.257
				c-7.783,0-12.299-3.39-12.299-12.298v-44.686h25.601v-11.166h-25.601V357.415z"/>
			<path fill="#FFFFFF" d="M894.072,378.629c-20.081,0-35.769,16.82-35.769,40.163c0,22.339,15.688,39.159,36.895,39.159
				c16.698,0,25.607-6.779,31.254-13.431l2.258-2.257l-7.904-6.651l-1.132,2.129c-6.651,6.779-14.435,11.174-23.344,11.174
				c-14.556,0-24.597-11.174-26.86-25.602h60.244v-1.132c0-2.258,0-2.258,0-3.39C929.714,395.449,915.279,378.629,894.072,378.629z
				 M894.072,388.67c15.561,0,22.34,13.431,24.597,24.604H869.47C871.733,399.843,881.774,388.67,894.072,388.67z"/>
			<path fill="#FFFFFF" d="M974.399,413.273c-11.173-4.522-18.956-6.779-18.956-13.431s6.657-11.173,15.688-11.173
				c6.658,0,13.31,3.39,21.093,7.783l1.253,1.125l5.52-8.908l-1.126-1.132c-7.911-5.52-17.952-7.777-26.739-7.777
				c-15.688,0-25.729,8.909-25.729,22.34c0,13.43,13.431,17.823,25.729,20.081v1.132c10.041,2.258,17.824,5.52,17.824,12.299
				c0,6.651-6.772,12.298-15.688,12.298c-8.908,0-16.691-3.39-24.475-9.036l-2.258-1.133l-5.525,9.044h1.011
				c7.776,6.651,20.081,11.166,31.247,11.166c15.688,0,26.733-9.036,26.733-22.339C1000,421.05,987.829,416.663,974.399,413.273z"/>
		</g>
	</g>
</g>
</svg>
