<?xml version="1.0" encoding="utf-8"?>
<!-- Generator: Adobe Illustrator 15.0.0, SVG Export Plug-In . SVG Version: 6.00 Build 0)  -->
<!DOCTYPE svg PUBLIC "-//W3C//DTD SVG 1.1//EN" "http://www.w3.org/Graphics/SVG/1.1/DTD/svg11.dtd">
<svg version="1.1" id="Capa_1" xmlns="http://www.w3.org/2000/svg" xmlns:xlink="http://www.w3.org/1999/xlink" x="0px" y="0px"
	 width="48px" height="47.978px" viewBox="0 0 48 47.978" enable-background="new 0 0 48 47.978" xml:space="preserve">
<g>
	<path fill="#F8F9FA" d="M24,47.977c13.217,0,24.002-10.76,24.002-23.999C48.002,10.739,37.217,0,24,0S0,10.762,0,24
		C0,37.239,10.783,47.977,24,47.977 M24,4.5c10.74,0,19.479,8.738,19.479,19.479c0,10.739-8.738,19.479-19.479,19.479
		c-10.739,0-19.479-8.74-19.479-19.479C4.521,13.238,13.261,4.5,24,4.5"/>
	<path fill="#F8F9FA" d="M28.934,32.108c0.436,0.436,1.023,0.652,1.588,0.652c0.566,0,1.152-0.217,1.588-0.652
		c0.869-0.869,0.869-2.305,0-3.174l-5.869-5.868V10.957c0-1.239-1.002-2.262-2.262-2.262c-1.261,0-2.262,1-2.262,2.262V24
		c0,0.586,0.24,1.172,0.652,1.586L28.934,32.108z"/>
</g>
</svg>
