<?xml version="1.0" encoding="utf-8"?>
<!-- Generator: Adobe Illustrator 15.0.0, SVG Export Plug-In . SVG Version: 6.00 Build 0)  -->
<!DOCTYPE svg PUBLIC "-//W3C//DTD SVG 1.1//EN" "http://www.w3.org/Graphics/SVG/1.1/DTD/svg11.dtd">
<svg version="1.1" id="Capa_1" xmlns="http://www.w3.org/2000/svg" xmlns:xlink="http://www.w3.org/1999/xlink" x="0px" y="0px"
	 width="321px" height="242px" viewBox="0 0 321 242" enable-background="new 0 0 321 242" xml:space="preserve">
<g>
	<path fill="#F9F9FA" d="M191.674,241.456c-29.579,0-55.104-26.697-71.308-49.094c-16.356-22.607-29.059-47.373-37.753-73.609
		c-7.546-22.771-10.927-42.39-10.335-59.979c0.654-19.428,5.988-32.448,15.854-38.701l0.019,0.029
		c1.337-0.889,6.136-3.93,24.792-15.752c0.998-0.748,5.58-3.807,13.803-3.807c12.056,0,25.61,6.411,40.287,19.056
		c26.845,23.128,49.323,55.916,65.004,94.82c8.908,22.1,14.181,42.229,16.118,61.539c2.321,23.101-1.737,39.31-12.063,48.176
		c-6.013,5.163-15.278,9.993-27.537,14.359C203.036,240.459,197.356,241.456,191.674,241.456z M126.745,6.544
		c-6.727,0-10.087,2.519-10.227,2.626l-0.25,0.177c0,0-24.695,15.648-24.92,15.792c-10.081,6.388-12.673,21.927-13.074,33.838
		c-0.567,16.867,2.714,35.803,10.034,57.889c8.501,25.652,20.923,49.87,36.919,71.98c15.384,21.264,39.4,46.61,66.446,46.61
		c4.995,0,9.997-0.88,14.868-2.614c11.563-4.117,20.189-8.578,25.641-13.259c8.751-7.514,12.116-21.989,10.002-43.024
		c-1.88-18.738-7.021-38.33-15.713-59.896c-15.325-38.021-37.233-70.012-63.355-92.518C146.23,9.598,134.017,6.544,126.745,6.544z"
		/>
	<path fill="#F9F9FA" d="M223.245,230.964c-0.225-0.049-0.99-0.109-1.666-0.162c-5.59-0.441-18.68-1.475-35.97-12.967
		c-21.259-14.131-41.157-39.011-59.14-73.949C74.552,39.094,104.321,10.226,105.614,9.048l4.041,4.436l-2.021-2.218l2.047,2.193
		c-0.069,0.066-6.884,6.793-7.656,25.631c-0.725,17.671,3.857,49.727,29.799,102.091c17.489,33.977,36.709,58.1,57.106,71.657
		c15.993,10.631,27.995,11.578,33.12,11.982c1.138,0.09,1.89,0.148,2.525,0.293L223.245,230.964z"/>
	<path fill="#F9F9FA" d="M214.245,228.984l-3.378-4.959c2.254-1.535,4.413-3.306,6.417-5.262
		c23.016-22.479,22.103-58.81,14.328-83.092c-8.321-25.988-22.502-51.895-45.982-83.999c-19.979-27.317-38.41-40.301-54.778-38.604
		c-18.87,1.961-28.769,23.408-28.866,23.625l-5.468-2.471c0.457-1.012,11.453-24.809,33.714-27.122
		c18.646-1.935,38.912,11.867,60.241,41.03c14.821,20.266,35.804,51.199,46.854,85.711c4.897,15.293,6.482,31.884,4.462,46.717
		c-2.328,17.099-9.352,31.794-20.312,42.498C219.22,225.258,216.788,227.252,214.245,228.984z"/>
	<path fill="#F9F9FA" d="M224.128,211.896c-1.349-9.188-3.479-18.678-6.513-29.008c-7.887-26.898-16.586-49.717-26.593-69.761
		c-15.732-31.513-39.2-62.479-73.854-97.456l4.262-4.223c35.117,35.441,58.936,66.899,74.96,98.999
		c10.168,20.365,18.994,43.509,26.982,70.751c3.112,10.601,5.301,20.357,6.692,29.825L224.128,211.896z"/>
</g>
</svg>
