<?xml version="1.0" encoding="utf-8"?>
<!-- Generator: Adobe Illustrator 15.0.0, SVG Export Plug-In . SVG Version: 6.00 Build 0)  -->
<!DOCTYPE svg PUBLIC "-//W3C//DTD SVG 1.1//EN" "http://www.w3.org/Graphics/SVG/1.1/DTD/svg11.dtd">
<svg version="1.1" id="Capa_1" xmlns="http://www.w3.org/2000/svg" xmlns:xlink="http://www.w3.org/1999/xlink" x="0px" y="0px"
	 width="321px" height="242px" viewBox="0 0 321 242" enable-background="new 0 0 321 242" xml:space="preserve">
<g>
	<path fill="#F9F9FA" d="M227.55,213.399c-13.475,0-26.434-4.472-36.489-12.592c-9.879-7.979-16.116-19.237-19.629-35.433
		c-0.784-3.606-0.802-6.661-0.056-9.338c0.08-0.29,0.174-0.589,0.279-0.883c1.621-4.586,5.312-6.74,8.567-8.642
		c0.517-0.302,1.034-0.604,1.545-0.917c3.951-2.424,8.42-4.659,13.284-6.646c12.09-4.933,24.873-7.54,36.968-7.54
		c32.417,0,46.515,18.301,47.1,19.08c0.389,0.519,0.6,1.15,0.6,1.8v17.88C279.719,182.075,263.678,213.399,227.55,213.399z
		 M232.02,137.41c-11.325,0-23.324,2.453-34.701,7.095c-4.562,1.863-8.739,3.951-12.414,6.205c-0.547,0.336-1.103,0.661-1.656,0.984
		c-3.13,1.827-5.091,3.069-5.94,5.472c-0.059,0.164-0.107,0.319-0.15,0.475c-0.479,1.721-0.434,3.832,0.138,6.461
		c3.207,14.786,8.779,24.967,17.535,32.038c8.992,7.261,20.612,11.26,32.72,11.26c34.118,0,46.169-29.652,46.169-37.229v-16.804
		C270.883,150.123,258.099,137.41,232.02,137.41z"/>
	<path fill="#F9F9FA" d="M93.451,213.399c-36.128,0-52.17-31.324-52.17-43.229v-17.88c0-0.649,0.211-1.281,0.6-1.8
		c0.585-0.779,14.684-19.08,47.1-19.08c11.743,0,23.688,2.34,35.506,6.956c4.797,1.874,9.272,4.017,13.303,6.367l0.623,0.362
		c4.26,2.473,9.088,5.276,10.894,10.947c0.16,0.502,0.293,1.016,0.396,1.528c0.897,4.466-0.128,8.885-1.031,12.783l-0.164,0.709
		C142.677,196.386,120.552,213.399,93.451,213.399z M47.281,153.376v16.794c0,7.577,12.051,37.229,46.17,37.229
		c24.244,0,44.02-15.143,49.207-37.681l0.166-0.719c0.805-3.468,1.636-7.054,0.994-10.248c-0.06-0.299-0.137-0.598-0.229-0.89
		c-1.104-3.464-4.387-5.37-8.189-7.577l-0.633-0.368c-3.763-2.195-7.956-4.201-12.464-5.962
		c-11.118-4.343-22.329-6.545-33.322-6.545C63.076,137.41,50.112,150.188,47.281,153.376z"/>
	<path fill="#F9F9FA" d="M173.91,159.761c-1.454,0-2.667-1.035-2.941-2.408c-0.343-0.358-2.404-2.063-10.469-2.063
		s-10.126,1.704-10.469,2.063c-0.274,1.373-1.487,2.408-2.941,2.408c-1.657,0-3-1.344-3-3c0-1.753,1.184-7.471,16.41-7.471
		s16.41,5.718,16.41,7.471C176.91,158.417,175.567,159.761,173.91,159.761z"/>
	<path fill="#F9F9FA" d="M283.124,173.17h-6.405c-1.657,0-3-1.344-3-3c0-1.657,1.343-3,3-3h6.405c0.811,0,1.47-0.659,1.47-1.47
		v-10.41h-7.875c-1.657,0-3-1.344-3-3c0-1.657,1.343-3,3-3h10.875c1.657,0,3,1.343,3,3v13.41
		C290.594,169.818,287.243,173.17,283.124,173.17z"/>
	<path fill="#F9F9FA" d="M44.281,173.17h-6.404c-4.119,0-7.471-3.352-7.471-7.47v-13.41c0-1.657,1.343-3,3-3h10.875
		c1.657,0,3,1.343,3,3c0,1.656-1.343,3-3,3h-7.875v10.41c0,0.811,0.66,1.47,1.471,1.47h6.404c1.657,0,3,1.343,3,3
		C47.281,171.826,45.938,173.17,44.281,173.17z"/>
	<path fill="#F9F9FA" d="M287.597,155.29c-1.051,0-2.07-0.553-2.62-1.534L222.398,42.007c-0.023-0.041-0.045-0.082-0.066-0.124
		c-0.031-0.062-3.8-7.282-10.727-7.282c-2.741,0-8.857,2.548-12.068,4.153c-1.48,0.74-3.283,0.141-4.025-1.342
		c-0.74-1.481-0.14-3.284,1.342-4.024c0.98-0.49,9.719-4.787,14.752-4.787c10.31,0,15.518,9.488,16.054,10.521l62.552,111.702
		c0.81,1.445,0.294,3.273-1.151,4.083C288.596,155.167,288.093,155.29,287.597,155.29z"/>
	<path fill="#F9F9FA" d="M33.403,155.29c-0.496,0-0.999-0.123-1.463-0.383c-1.445-0.81-1.961-2.638-1.151-4.083L93.341,39.123
		c0.535-1.031,5.743-10.522,16.054-10.522c5.033,0,13.771,4.297,14.752,4.787c1.481,0.74,2.082,2.542,1.342,4.023
		c-0.74,1.482-2.542,2.083-4.024,1.343c-3.216-1.605-9.336-4.153-12.069-4.153c-6.927,0-10.694,7.22-10.731,7.293
		c-0.018,0.034-0.041,0.08-0.061,0.113L36.023,153.756C35.474,154.737,34.454,155.29,33.403,155.29z"/>
</g>
</svg>
