<?xml version="1.0" encoding="utf-8"?>
<!-- Generator: Adobe Illustrator 15.0.0, SVG Export Plug-In . SVG Version: 6.00 Build 0)  -->
<!DOCTYPE svg PUBLIC "-//W3C//DTD SVG 1.1//EN" "http://www.w3.org/Graphics/SVG/1.1/DTD/svg11.dtd">
<svg version="1.1" id="Capa_1" xmlns="http://www.w3.org/2000/svg" xmlns:xlink="http://www.w3.org/1999/xlink" x="0px" y="0px"
	 width="61px" height="47.579px" viewBox="0 0 61 47.579" enable-background="new 0 0 61 47.579" xml:space="preserve">
<g>
	<path fill="#F8F9FA" d="M59.492,6.368h-12.06v-4.86C47.433,0.675,46.757,0,45.925,0h-4.366c-0.832,0-1.508,0.675-1.508,1.508v4.86
		H20.949v-4.86C20.949,0.675,20.275,0,19.441,0h-4.366c-0.833,0-1.507,0.675-1.507,1.508v4.86H1.508C0.675,6.368,0,7.043,0,7.875
		v38.196c0,0.832,0.675,1.508,1.508,1.508h57.984c0.834,0,1.508-0.676,1.508-1.508V7.875C61,7.043,60.326,6.368,59.492,6.368
		 M13.568,9.383v3.105c0,0.832,0.674,1.508,1.507,1.508h4.366c0.834,0,1.508-0.676,1.508-1.508V9.383h19.102v3.105
		c0,0.832,0.676,1.508,1.508,1.508h4.366c0.832,0,1.508-0.676,1.508-1.508V9.383h10.552v7.969H3.016V9.383H13.568z M3.016,20.366
		h54.969v24.197H3.016V20.366z"/>
	<path fill="#F8F9FA" d="M19.438,26.129h-8.725c-0.832,0-1.508,0.676-1.508,1.508v8.725c0,0.832,0.676,1.508,1.508,1.508h8.725
		c0.834,0,1.508-0.676,1.508-1.508v-8.725C20.945,26.805,20.271,26.129,19.438,26.129 M17.93,34.854h-5.709v-5.709h5.709V34.854z"/>
	<path fill="#F8F9FA" d="M34.862,26.129h-8.725c-0.833,0-1.508,0.676-1.508,1.508v8.725c0,0.832,0.675,1.508,1.508,1.508h8.725
		c0.834,0,1.508-0.676,1.508-1.508v-8.725C36.37,26.805,35.696,26.129,34.862,26.129 M33.354,34.854h-5.709v-5.709h5.709V34.854z"/>
	<path fill="#F8F9FA" d="M50.287,26.129h-8.725c-0.832,0-1.508,0.676-1.508,1.508v8.725c0,0.832,0.676,1.508,1.508,1.508h8.725
		c0.832,0,1.508-0.676,1.508-1.508v-8.725C51.795,26.805,51.119,26.129,50.287,26.129 M48.779,34.854H43.07v-5.709h5.709V34.854z"/>
</g>
</svg>
