<?xml version="1.0" encoding="utf-8"?>
<!-- Generator: Adobe Illustrator 15.0.0, SVG Export Plug-In . SVG Version: 6.00 Build 0)  -->
<!DOCTYPE svg PUBLIC "-//W3C//DTD SVG 1.1//EN" "http://www.w3.org/Graphics/SVG/1.1/DTD/svg11.dtd">
<svg version="1.1" id="Capa_1" xmlns="http://www.w3.org/2000/svg" xmlns:xlink="http://www.w3.org/1999/xlink" x="0px" y="0px"
	 width="321px" height="242px" viewBox="0 0 321 242" enable-background="new 0 0 321 242" xml:space="preserve">
<g>
	<path fill="#F9F9FA" d="M84.194,167.307c-2.484,0-5.274-0.039-8.529-0.119c-19.878-0.484-49.917-1.219-64.357-21.417
		C2.579,133.561-1.48,115.648,0.713,99.026C1.192,95.4,2.5,92.342,4.599,89.935c3.35-3.843,9.511-6.884,18.313-9.036
		c16.833-4.117,33.394-6.205,49.225-6.205c18.401,0,36.016,2.824,52.354,8.394c5.036,1.716,10.312,3.811,14.776,7.489
		c9.243,7.613,6.84,23.119,5.085,34.442c-0.21,1.356-0.413,2.662-0.586,3.894c-1.05,7.455-3.088,13.648-6.229,18.934
		c-3.319,5.577-8.724,9.783-16.523,12.859C108.03,165.825,99.771,167.307,84.194,167.307z M72.136,80.693
		c-15.352,0-31.434,2.03-47.799,6.033c-7.469,1.827-12.73,4.3-15.216,7.15c-1.329,1.525-2.133,3.466-2.46,5.936
		c-1.972,14.943,1.768,31.613,9.527,42.469c12.698,17.764,39.82,18.426,59.623,18.908c3.205,0.078,5.947,0.117,8.383,0.117
		c14.692,0,22.457-1.387,34.617-6.184c6.517-2.57,10.955-5.953,13.567-10.344c2.728-4.588,4.509-10.053,5.445-16.704
		c0.177-1.257,0.384-2.59,0.599-3.976c1.533-9.897,3.635-23.452-2.971-28.893c-3.724-3.067-8.399-4.908-12.897-6.441
		C106.841,83.41,89.878,80.693,72.136,80.693z"/>
	<path fill="#F9F9FA" d="M236.812,167.307c-0.002,0-0.004,0-0.005,0c-15.578-0.001-23.836-1.481-36.818-6.603
		c-7.802-3.075-13.206-7.28-16.522-12.857c-3.146-5.29-5.184-11.483-6.23-18.936c-0.173-1.229-0.375-2.533-0.586-3.889
		c-1.756-11.324-4.16-26.833,5.085-34.447c4.465-3.677,9.74-5.772,14.775-7.489c16.338-5.568,33.952-8.393,52.354-8.393
		c15.831,0,32.393,2.088,49.226,6.205c8.802,2.153,14.963,5.193,18.313,9.037c2.099,2.406,3.406,5.465,3.886,9.09
		c2.192,16.625-1.868,34.535-10.596,46.745c-14.439,20.199-44.479,20.933-64.355,21.417
		C242.083,167.268,239.293,167.307,236.812,167.307z M248.864,80.693c-17.742,0-34.705,2.717-50.418,8.072
		c-4.498,1.533-9.174,3.375-12.896,6.441c-6.606,5.441-4.505,18.998-2.97,28.896c0.215,1.385,0.421,2.715,0.598,3.972
		c0.935,6.649,2.716,12.113,5.445,16.704c2.611,4.391,7.049,7.773,13.567,10.344c12.16,4.796,19.924,6.184,34.617,6.184
		c0.001,0,0.003,0,0.005,0c2.433,0,5.173-0.039,8.378-0.117c19.803-0.482,46.923-1.145,59.621-18.908
		c7.759-10.854,11.499-27.525,9.528-42.471c-0.326-2.468-1.132-4.408-2.46-5.933c-2.485-2.851-7.747-5.324-15.216-7.151
		C280.297,82.724,264.214,80.693,248.864,80.693z"/>
	<path fill="#F9F9FA" d="M34.806,126.709c-0.768,0-1.536-0.293-2.121-0.879c-1.172-1.171-1.172-3.07,0-4.242l19.294-19.293
		c1.172-1.172,3.07-1.172,4.242,0c1.172,1.171,1.172,3.07,0,4.242L36.927,125.83C36.342,126.416,35.574,126.709,34.806,126.709z"/>
	<path fill="#F9F9FA" d="M91.005,142.918c-0.768,0-1.535-0.293-2.121-0.879c-1.172-1.172-1.172-3.071,0-4.243l19.295-19.294
		c1.172-1.171,3.07-1.172,4.242,0s1.172,3.071,0,4.243l-19.295,19.294C92.541,142.625,91.773,142.918,91.005,142.918z"/>
	<path fill="#F9F9FA" d="M49.259,149.145c-0.768,0-1.536-0.293-2.121-0.879c-1.172-1.172-1.172-3.071,0-4.242l48.29-48.291
		c1.172-1.172,3.07-1.172,4.242,0s1.172,3.071,0,4.242l-48.29,48.291C50.795,148.852,50.027,149.145,49.259,149.145z"/>
	<path fill="#F9F9FA" d="M210.177,126.709c-0.768,0-1.535-0.293-2.121-0.879c-1.172-1.171-1.172-3.07,0-4.242l19.295-19.294
		c1.172-1.171,3.07-1.171,4.242,0.001c1.172,1.171,1.172,3.07,0,4.242l-19.295,19.294
		C211.712,126.416,210.945,126.709,210.177,126.709z"/>
	<path fill="#F9F9FA" d="M266.378,142.918c-0.768,0-1.535-0.293-2.121-0.879c-1.172-1.172-1.172-3.071,0-4.242l19.293-19.295
		c1.172-1.172,3.07-1.171,4.242,0c1.172,1.172,1.172,3.071,0,4.242L268.5,142.039C267.914,142.625,267.146,142.918,266.378,142.918z
		"/>
	<path fill="#F9F9FA" d="M224.63,149.145c-0.768,0-1.535-0.293-2.121-0.879c-1.172-1.172-1.172-3.071,0-4.243l48.291-48.29
		c1.172-1.171,3.07-1.172,4.242,0s1.172,3.071,0,4.243l-48.291,48.29C226.166,148.852,225.398,149.145,224.63,149.145z"/>
</g>
</svg>
