<?xml version="1.0" encoding="utf-8"?>
<!-- Generator: Adobe Illustrator 15.0.0, SVG Export Plug-In . SVG Version: 6.00 Build 0)  -->
<!DOCTYPE svg PUBLIC "-//W3C//DTD SVG 1.1//EN" "http://www.w3.org/Graphics/SVG/1.1/DTD/svg11.dtd">
<svg version="1.1" id="Capa_1" xmlns="http://www.w3.org/2000/svg" xmlns:xlink="http://www.w3.org/1999/xlink" x="0px" y="0px"
	 width="481.667px" height="160.883px" viewBox="0 0 481.667 160.883" enable-background="new 0 0 481.667 160.883"
	 xml:space="preserve">
<g>
	<g>
		<defs>
			<rect id="SVGID_1_" width="481.667" height="161.008"/>
		</defs>
		<clipPath id="SVGID_2_">
			<use xlink:href="#SVGID_1_"  overflow="visible"/>
		</clipPath>
		<path clip-path="url(#SVGID_2_)" fill="#A6A6A6" d="M443.31,0H38.379c-1.477,0-2.937,0-4.408,0.01
			c-1.231,0.008-2.453,0.031-3.698,0.051c-2.703,0.031-5.398,0.269-8.066,0.71c-2.663,0.453-5.242,1.303-7.651,2.525
			C12.151,4.528,9.952,6.128,8.041,8.04c-1.923,1.905-3.523,4.107-4.744,6.524c-1.222,2.412-2.071,4.996-2.515,7.662
			c-0.447,2.663-0.688,5.357-0.72,8.058c-0.038,1.234-0.042,2.472-0.063,3.707v93.04c0.021,1.248,0.025,2.458,0.063,3.709
			c0.032,2.701,0.272,5.396,0.72,8.058c0.444,2.667,1.292,5.254,2.515,7.666c1.221,2.407,2.821,4.603,4.744,6.498
			c1.903,1.921,4.103,3.521,6.514,4.744c2.409,1.224,4.989,2.081,7.651,2.538c2.668,0.441,5.364,0.677,8.066,0.714
			c1.246,0.026,2.467,0.042,3.698,0.042c1.471,0.008,2.931,0.008,4.408,0.008H443.31c1.447,0,2.914,0,4.363-0.008
			c1.229,0,2.484-0.016,3.711-0.042c2.697-0.035,5.391-0.271,8.049-0.714c2.672-0.462,5.264-1.316,7.684-2.538
			c2.41-1.224,4.605-2.824,6.51-4.744c1.916-1.903,3.518-4.097,4.754-6.498c1.217-2.414,2.053-4.998,2.492-7.666
			c0.453-2.662,0.695-5.356,0.744-8.058c0.018-1.25,0.018-2.461,0.018-3.709c0.033-1.465,0.033-2.918,0.033-4.404v-84.24
			c0-1.475,0-2.938-0.033-4.396c0-1.235,0-2.473-0.018-3.709c-0.049-2.698-0.291-5.393-0.744-8.056
			c-0.439-2.666-1.275-5.25-2.492-7.662c-2.482-4.843-6.422-8.784-11.264-11.27c-2.42-1.219-5.012-2.068-7.684-2.523
			c-2.658-0.443-5.352-0.681-8.049-0.712c-1.227-0.018-2.482-0.041-3.711-0.049C446.226,0,444.757,0,443.31,0"/>
	</g>
	<g>
		<defs>
			<rect id="SVGID_3_" width="481.667" height="161.008"/>
		</defs>
		<clipPath id="SVGID_4_">
			<use xlink:href="#SVGID_3_"  overflow="visible"/>
		</clipPath>
		<path clip-path="url(#SVGID_4_)" fill="#010202" d="M33.992,157.484c-1.227,0-2.424-0.016-3.642-0.043
			c-2.519-0.031-5.034-0.252-7.522-0.657c-2.319-0.396-4.567-1.144-6.667-2.204c-2.082-1.053-3.981-2.434-5.623-4.091
			c-1.668-1.636-3.055-3.538-4.108-5.622c-1.066-2.1-1.804-4.348-2.187-6.672c-0.414-2.494-0.637-5.018-0.67-7.545
			c-0.025-0.851-0.058-3.674-0.058-3.674V33.991c0,0,0.035-2.782,0.058-3.6c0.032-2.527,0.254-5.046,0.667-7.535
			c0.385-2.33,1.122-4.585,2.188-6.691c1.049-2.082,2.43-3.983,4.087-5.626c1.653-1.659,3.558-3.048,5.645-4.118
			c2.094-1.057,4.339-1.795,6.655-2.188c2.496-0.409,5.019-0.628,7.548-0.661l3.632-0.048h413.659l3.678,0.05
			c2.504,0.031,5.004,0.249,7.477,0.655c2.34,0.398,4.607,1.141,6.729,2.204c4.18,2.153,7.576,5.559,9.723,9.742
			c1.049,2.092,1.773,4.329,2.156,6.637c0.414,2.511,0.645,5.051,0.699,7.596c0.008,1.141,0.008,2.365,0.008,3.583
			c0.031,1.508,0.031,2.946,0.031,4.396v84.24c0,1.464,0,2.889-0.031,4.329c0,1.31,0,2.509-0.012,3.741
			c-0.051,2.501-0.281,4.994-0.691,7.46c-0.375,2.341-1.107,4.606-2.172,6.722c-1.063,2.064-2.443,3.947-4.092,5.578
			c-1.643,1.667-3.541,3.057-5.627,4.118c-2.119,1.067-4.381,1.815-6.721,2.21c-2.484,0.406-5.002,0.628-7.521,0.656
			c-1.176,0.029-2.412,0.043-3.611,0.043l-4.363,0.011L33.992,157.484z"/>
	</g>
	<g>
		<defs>
			<rect id="SVGID_5_" width="481.667" height="161.008"/>
		</defs>
		<clipPath id="SVGID_6_">
			<use xlink:href="#SVGID_5_"  overflow="visible"/>
		</clipPath>
		<path clip-path="url(#SVGID_6_)" fill="#FFFFFF" d="M99.698,81.715c0.088-6.828,3.669-13.136,9.486-16.714
			c-3.688-5.264-9.64-8.483-16.065-8.684c-6.759-0.71-13.312,4.046-16.757,4.046c-3.511,0-8.814-3.975-14.525-3.859
			c-7.512,0.244-14.347,4.412-18.004,10.982c-7.784,13.477-1.977,33.286,5.481,44.18c3.731,5.335,8.091,11.293,13.796,11.083
			c5.582-0.233,7.667-3.56,14.408-3.56c6.678,0,8.633,3.56,14.454,3.424c5.99-0.098,9.765-5.357,13.365-10.742
			c2.682-3.803,4.744-8.003,6.113-12.45C104.333,96.412,99.707,89.439,99.698,81.715"/>
	</g>
	<g>
		<defs>
			<rect id="SVGID_7_" width="481.667" height="161.008"/>
		</defs>
		<clipPath id="SVGID_8_">
			<use xlink:href="#SVGID_7_"  overflow="visible"/>
		</clipPath>
		<path clip-path="url(#SVGID_8_)" fill="#FFFFFF" d="M88.704,49.151c3.266-3.92,4.877-8.961,4.487-14.048
			c-4.991,0.522-9.602,2.908-12.912,6.679c-3.269,3.719-4.927,8.589-4.604,13.528C80.732,55.363,85.534,53.094,88.704,49.151"/>
	</g>
	<g>
		<defs>
			<rect id="SVGID_9_" width="481.667" height="161.008"/>
		</defs>
		<clipPath id="SVGID_10_">
			<use xlink:href="#SVGID_9_"  overflow="visible"/>
		</clipPath>
		<path clip-path="url(#SVGID_10_)" fill="#FFFFFF" d="M170.274,109.242h-19.053l-4.575,13.511h-8.07l18.045-49.982h8.386
			l18.046,49.982h-8.208L170.274,109.242z M153.194,103.008h15.102l-7.443-21.926h-0.208L153.194,103.008z"/>
	</g>
	<g>
		<defs>
			<rect id="SVGID_11_" width="481.667" height="161.008"/>
		</defs>
		<clipPath id="SVGID_12_">
			<use xlink:href="#SVGID_11_"  overflow="visible"/>
		</clipPath>
		<path clip-path="url(#SVGID_12_)" fill="#FFFFFF" d="M222.027,104.533c0,11.324-6.061,18.603-15.207,18.603
			c-4.729,0.246-9.183-2.229-11.468-6.376h-0.173v18.051H187.7v-48.5h7.24v6.061h0.139c2.386-4.119,6.844-6.596,11.602-6.443
			C215.931,85.928,222.027,93.239,222.027,104.533 M214.337,104.533c0-7.377-3.812-12.229-9.63-12.229
			c-5.715,0-9.56,4.952-9.56,12.229c0,7.344,3.845,12.263,9.56,12.263C210.525,116.796,214.337,111.979,214.337,104.533"/>
	</g>
	<g>
		<defs>
			<rect id="SVGID_13_" width="481.667" height="161.008"/>
		</defs>
		<clipPath id="SVGID_14_">
			<use xlink:href="#SVGID_13_"  overflow="visible"/>
		</clipPath>
		<path clip-path="url(#SVGID_14_)" fill="#FFFFFF" d="M262.134,104.533c0,11.324-6.059,18.603-15.204,18.603
			c-4.729,0.246-9.183-2.229-11.469-6.376h-0.173v18.051h-7.479v-48.5h7.24v6.061h0.139c2.386-4.119,6.845-6.596,11.603-6.443
			C256.041,85.928,262.134,93.239,262.134,104.533 M254.449,104.533c0-7.377-3.814-12.229-9.631-12.229
			c-5.716,0-9.561,4.952-9.561,12.229c0,7.344,3.845,12.263,9.561,12.263C250.634,116.796,254.449,111.979,254.449,104.533"/>
	</g>
	<g>
		<defs>
			<rect id="SVGID_15_" width="481.667" height="161.008"/>
		</defs>
		<clipPath id="SVGID_16_">
			<use xlink:href="#SVGID_15_"  overflow="visible"/>
		</clipPath>
		<path clip-path="url(#SVGID_16_)" fill="#FFFFFF" d="M288.646,108.827c0.557,4.957,5.37,8.21,11.949,8.21
			c6.307,0,10.841-3.253,10.841-7.725c0-3.879-2.735-6.203-9.213-7.797l-6.479-1.559c-9.179-2.217-13.438-6.509-13.438-13.475
			c0-8.625,7.514-14.548,18.188-14.548c10.563,0,17.801,5.925,18.045,14.548h-7.552c-0.448-4.988-4.573-8-10.6-8
			s-10.148,3.048-10.148,7.481c0,3.533,2.632,5.614,9.076,7.204l5.507,1.354c10.254,2.427,14.516,6.543,14.516,13.855
			c0,9.352-7.448,15.209-19.295,15.209c-11.086,0-18.568-5.719-19.054-14.759H288.646L288.646,108.827z"/>
	</g>
	<g>
		<defs>
			<rect id="SVGID_17_" width="481.667" height="161.008"/>
		</defs>
		<clipPath id="SVGID_18_">
			<use xlink:href="#SVGID_17_"  overflow="visible"/>
		</clipPath>
		<path clip-path="url(#SVGID_18_)" fill="#FFFFFF" d="M335.481,77.687v8.624h6.929v5.924h-6.929v20.091
			c0,3.12,1.39,4.575,4.435,4.575c0.82-0.014,1.644-0.071,2.461-0.174v5.892c-1.371,0.254-2.764,0.371-4.155,0.346
			c-7.38,0-10.255-2.771-10.255-9.841V92.234h-5.299v-5.924h5.299v-8.624H335.481z"/>
	</g>
	<g>
		<defs>
			<rect id="SVGID_19_" width="481.667" height="161.008"/>
		</defs>
		<clipPath id="SVGID_20_">
			<use xlink:href="#SVGID_19_"  overflow="visible"/>
		</clipPath>
		<path clip-path="url(#SVGID_20_)" fill="#FFFFFF" d="M346.425,104.533c0-11.467,6.755-18.67,17.285-18.67
			c10.564,0,17.287,7.203,17.287,18.67c0,11.499-6.687,18.674-17.287,18.674C353.113,123.207,346.425,116.031,346.425,104.533
			 M373.375,104.533c0-7.863-3.601-12.508-9.664-12.508c-6.062,0-9.662,4.678-9.662,12.508c0,7.896,3.601,12.505,9.662,12.505
			C369.773,117.038,373.375,112.43,373.375,104.533"/>
	</g>
	<g>
		<defs>
			<rect id="SVGID_21_" width="481.667" height="161.008"/>
		</defs>
		<clipPath id="SVGID_22_">
			<use xlink:href="#SVGID_21_"  overflow="visible"/>
		</clipPath>
		<path clip-path="url(#SVGID_22_)" fill="#FFFFFF" d="M387.164,86.311h7.135v6.201h0.176c0.992-3.992,4.652-6.738,8.764-6.582
			c0.861-0.004,1.723,0.09,2.563,0.278v6.997c-1.086-0.332-2.223-0.484-3.361-0.454c-4.158-0.167-7.667,3.067-7.836,7.229
			c-0.018,0.385-0.002,0.771,0.043,1.158v21.614h-7.48V86.311H387.164z"/>
	</g>
	<g>
		<defs>
			<rect id="SVGID_23_" width="481.667" height="161.008"/>
		</defs>
		<clipPath id="SVGID_24_">
			<use xlink:href="#SVGID_23_"  overflow="visible"/>
		</clipPath>
		<path clip-path="url(#SVGID_24_)" fill="#FFFFFF" d="M440.289,112.05c-1.006,6.614-7.449,11.154-15.693,11.154
			c-10.598,0-17.182-7.103-17.182-18.499c0-11.43,6.619-18.844,16.869-18.844c10.084,0,16.426,6.926,16.426,17.976v2.563h-25.742
			v0.451c-0.461,5.223,3.396,9.83,8.619,10.293c0.396,0.035,0.789,0.045,1.186,0.03c3.631,0.339,7.053-1.745,8.412-5.126
			L440.289,112.05L440.289,112.05z M415.001,101.172h18.219c0.271-4.832-3.428-8.967-8.26-9.238c-0.227-0.01-0.455-0.014-0.678-0.01
			c-5.092-0.031-9.248,4.075-9.281,9.17V101.172z"/>
	</g>
	<g>
		<defs>
			<rect id="SVGID_25_" width="481.667" height="161.008"/>
		</defs>
		<clipPath id="SVGID_26_">
			<use xlink:href="#SVGID_25_"  overflow="visible"/>
		</clipPath>
	</g>
	<g>
		<defs>
			<rect id="SVGID_27_" width="481.667" height="161.008"/>
		</defs>
		<clipPath id="SVGID_28_">
			<use xlink:href="#SVGID_27_"  overflow="visible"/>
		</clipPath>
	</g>
	<g>
		<defs>
			<rect id="SVGID_29_" width="481.667" height="161.008"/>
		</defs>
		<clipPath id="SVGID_30_">
			<use xlink:href="#SVGID_29_"  overflow="visible"/>
		</clipPath>
	</g>
	<g>
		<defs>
			<rect id="SVGID_31_" width="481.667" height="161.008"/>
		</defs>
		<clipPath id="SVGID_32_">
			<use xlink:href="#SVGID_31_"  overflow="visible"/>
		</clipPath>
	</g>
	<g>
		<defs>
			<rect id="SVGID_33_" width="481.667" height="161.008"/>
		</defs>
		<clipPath id="SVGID_34_">
			<use xlink:href="#SVGID_33_"  overflow="visible"/>
		</clipPath>
	</g>
	<g>
		<defs>
			<rect id="SVGID_35_" width="481.667" height="161.008"/>
		</defs>
		<clipPath id="SVGID_36_">
			<use xlink:href="#SVGID_35_"  overflow="visible"/>
		</clipPath>
	</g>
	<g>
		<defs>
			<rect id="SVGID_37_" width="481.667" height="161.008"/>
		</defs>
		<clipPath id="SVGID_38_">
			<use xlink:href="#SVGID_37_"  overflow="visible"/>
		</clipPath>
	</g>
	<g>
		<defs>
			<rect id="SVGID_39_" width="481.667" height="161.008"/>
		</defs>
		<clipPath id="SVGID_40_">
			<use xlink:href="#SVGID_39_"  overflow="visible"/>
		</clipPath>
	</g>
	<g>
		<defs>
			<rect id="SVGID_41_" width="481.667" height="161.008"/>
		</defs>
		<clipPath id="SVGID_42_">
			<use xlink:href="#SVGID_41_"  overflow="visible"/>
		</clipPath>
	</g>
	<g>
		<defs>
			<rect id="SVGID_43_" width="481.667" height="161.008"/>
		</defs>
		<clipPath id="SVGID_44_">
			<use xlink:href="#SVGID_43_"  overflow="visible"/>
		</clipPath>
	</g>
	<g>
		<defs>
			<rect id="SVGID_45_" width="481.667" height="161.008"/>
		</defs>
		<clipPath id="SVGID_46_">
			<use xlink:href="#SVGID_45_"  overflow="visible"/>
		</clipPath>
	</g>
	<g>
		<defs>
			<rect id="SVGID_47_" width="481.667" height="161.008"/>
		</defs>
		<clipPath id="SVGID_48_">
			<use xlink:href="#SVGID_47_"  overflow="visible"/>
		</clipPath>
	</g>
	<g>
		<defs>
			<rect id="SVGID_49_" width="481.667" height="161.008"/>
		</defs>
		<clipPath id="SVGID_50_">
			<use xlink:href="#SVGID_49_"  overflow="visible"/>
		</clipPath>
	</g>
</g>
<g>
	<path fill="#FFFFFF" d="M164.303,45.618c0,7.546-5.148,12.166-13.012,12.166h-8.005V33.276h8.005
		C159.155,33.276,164.303,38.036,164.303,45.618z M151.291,54.504c5.783,0,8.886-3.315,8.886-8.886c0-5.607-3.103-9.063-8.886-9.063
		h-3.985v17.949H151.291z"/>
	<path fill="#FFFFFF" d="M167.754,33.206c0-1.446,1.128-2.574,2.574-2.574c1.411,0,2.539,1.128,2.539,2.574
		s-1.128,2.574-2.539,2.574C168.883,35.779,167.754,34.651,167.754,33.206z M168.283,38.354h4.02v19.43h-4.02V38.354z"/>
	<path fill="#FFFFFF" d="M184.644,58.101c-4.655,0-7.934-2.75-8.11-6.277h4.161c0.141,1.587,1.657,2.892,3.879,2.892
		c2.327,0,3.562-0.987,3.562-2.327c0-3.809-11.284-1.623-11.284-8.746c0-3.103,2.892-5.607,7.476-5.607
		c4.408,0,7.299,2.363,7.511,6.242h-4.02c-0.141-1.692-1.446-2.856-3.632-2.856c-2.151,0-3.279,0.881-3.279,2.186
		c0,3.914,10.967,1.728,11.178,8.745C192.084,55.633,189.228,58.101,184.644,58.101z"/>
	<path fill="#FFFFFF" d="M207.208,38.036c5.113,0,9.133,3.95,9.133,9.944s-4.02,10.121-9.133,10.121
		c-3.209,0-5.501-1.622-6.771-3.138v12.06h-4.02V38.354h4.02v2.856C201.672,39.588,204.035,38.036,207.208,38.036z M206.327,41.527
		c-2.998,0-5.889,2.363-5.889,6.524c0,4.196,2.892,6.559,5.889,6.559c3.033,0,5.924-2.433,5.924-6.629S209.36,41.527,206.327,41.527
		z"/>
	<path fill="#FFFFFF" d="M228.75,58.101c-5.537,0-9.733-3.95-9.733-10.05c0-6.101,4.373-10.015,9.909-10.015
		c5.536,0,9.909,3.915,9.909,10.015C238.835,54.151,234.321,58.101,228.75,58.101z M228.75,54.61c2.997,0,5.959-2.151,5.959-6.559
		c0-4.408-2.856-6.524-5.854-6.524c-3.032,0-5.748,2.116-5.748,6.524C223.108,52.459,225.717,54.61,228.75,54.61z"/>
	<path fill="#FFFFFF" d="M256.602,46.923c0-3.562-1.939-5.396-4.866-5.396c-2.962,0-4.901,1.834-4.901,5.396v10.861h-4.02v-19.43
		h4.02v2.222c1.305-1.587,3.456-2.539,5.783-2.539c4.549,0,7.97,2.856,7.97,8.287v11.46h-3.985V46.923z"/>
	<path fill="#FFFFFF" d="M265.167,33.206c0-1.446,1.128-2.574,2.574-2.574c1.41,0,2.538,1.128,2.538,2.574s-1.128,2.574-2.538,2.574
		C266.295,35.779,265.167,34.651,265.167,33.206z M265.696,38.354h4.021v19.43h-4.021V38.354z"/>
	<path fill="#FFFFFF" d="M285.794,38.036c5.148,0,9.133,3.95,9.133,9.944s-4.02,10.121-9.133,10.121
		c-3.209,0-5.501-1.446-6.771-3.138v2.821h-4.021V31.689h4.021v9.556C280.293,39.482,282.726,38.036,285.794,38.036z
		 M284.913,41.527c-2.997,0-5.889,2.363-5.889,6.524c0,4.196,2.892,6.559,5.889,6.559c3.032,0,5.924-2.433,5.924-6.629
		S287.945,41.527,284.913,41.527z"/>
	<path fill="#FFFFFF" d="M298.908,31.689h4.021v26.095h-4.021V31.689z"/>
	<path fill="#FFFFFF" d="M316.572,58.101c-5.571,0-9.697-3.95-9.697-10.05c0-6.101,3.949-10.015,9.697-10.015
		c5.536,0,9.45,3.844,9.45,9.557c0,0.67-0.035,1.305-0.141,1.975h-14.846c0.282,3.209,2.574,5.148,5.536,5.148
		c2.469,0,3.844-1.199,4.584-2.715h4.338C324.4,55.386,321.333,58.101,316.572,58.101z M311.071,46.323h10.755
		c-0.07-2.998-2.433-4.901-5.43-4.901C313.68,41.422,311.494,43.255,311.071,46.323z"/>
	<path fill="#FFFFFF" d="M347.492,58.101c-5.571,0-9.697-3.95-9.697-10.05c0-6.101,3.949-10.015,9.697-10.015
		c5.536,0,9.45,3.844,9.45,9.557c0,0.67-0.035,1.305-0.141,1.975h-14.846c0.282,3.209,2.574,5.148,5.536,5.148
		c2.469,0,3.844-1.199,4.584-2.715h4.338C355.32,55.386,352.252,58.101,347.492,58.101z M341.991,46.323h10.755
		c-0.07-2.998-2.433-4.901-5.43-4.901C344.6,41.422,342.414,43.255,341.991,46.323z"/>
	<path fill="#FFFFFF" d="M374.676,46.923c0-3.562-1.939-5.396-4.866-5.396c-2.962,0-4.901,1.834-4.901,5.396v10.861h-4.021v-19.43
		h4.021v2.222c1.305-1.587,3.455-2.539,5.783-2.539c4.549,0,7.969,2.856,7.969,8.287v11.46h-3.984V46.923z"/>
</g>
</svg>
