<?xml version="1.0" encoding="utf-8"?>
<!-- Generator: Adobe Illustrator 15.0.0, SVG Export Plug-In . SVG Version: 6.00 Build 0)  -->
<!DOCTYPE svg PUBLIC "-//W3C//DTD SVG 1.1//EN" "http://www.w3.org/Graphics/SVG/1.1/DTD/svg11.dtd">
<svg version="1.1" id="Capa_1" xmlns="http://www.w3.org/2000/svg" xmlns:xlink="http://www.w3.org/1999/xlink" x="0px" y="0px"
	 width="33.359px" height="42px" viewBox="0 0 33.359 42" enable-background="new 0 0 33.359 42" xml:space="preserve">
<g>
	<g>
		<g>
			<path fill="#23305F" d="M28.482,4.692c3.145,3.035,4.877,7.062,4.877,11.347c0,10.699-15.636,25.34-16.521,25.868L16.685,42
				l-0.164-0.093C15.636,41.379,0,26.757,0,16.039c0-4.285,1.742-8.312,4.889-11.347C8.035,1.666,12.229,0,16.685,0
				C21.139,0,25.326,1.666,28.482,4.692 M29.125,16.039c0-4.257-2.385-8.228-6.223-10.366c-1.916-1.064-4.072-1.592-6.217-1.592
				c-2.155,0-4.302,0.528-6.226,1.592c-3.83,2.138-6.216,6.109-6.216,10.366c0,7.22,9.141,18.261,12.441,20.639
				C19.984,34.3,29.125,23.259,29.125,16.039"/>
			<path fill="#23305F" d="M22.602,6.09c3.656,2.035,5.928,5.815,5.928,9.868c0,6.873-8.703,17.385-11.845,19.649
				C13.542,33.343,4.84,22.831,4.84,15.958c0-4.053,2.273-7.833,5.917-9.868c1.833-1.013,3.875-1.517,5.927-1.517
				C18.729,4.573,20.779,5.077,22.602,6.09"/>
		</g>
	</g>
	<path fill="#EFF4F4" d="M4.776,15.732c-0.364,0-0.66,0.297-0.66,0.66c0,0.364,0.296,0.661,0.66,0.661s0.66-0.296,0.66-0.661
		C5.436,16.029,5.14,15.732,4.776,15.732"/>
	<path fill="#EFF4F4" d="M28.59,15.732c-0.363,0-0.66,0.297-0.66,0.66c0,0.364,0.297,0.661,0.66,0.661s0.66-0.296,0.66-0.661
		C29.25,16.029,28.953,15.732,28.59,15.732"/>
	<path fill="#EFF4F4" d="M13.521,14.548c-0.48-0.141-0.975-0.176-1.47-0.106c-0.151,0.021-0.282,0.111-0.357,0.245
		c-0.079,0.138-0.088,0.301-0.026,0.447c0.095,0.226,0.331,0.363,0.574,0.334c0.102-0.013,0.204-0.019,0.304-0.019
		c0.781,0,1.516,0.346,2.018,0.949c0.5,0.603,0.705,1.395,0.559,2.175c-0.194,1.048-1.028,1.883-2.076,2.078
		c-0.781,0.145-1.575-0.06-2.177-0.559c-0.603-0.502-0.949-1.238-0.949-2.018c0-0.287,0.038-0.551,0.114-0.789
		c0.016-0.049,0.036-0.097,0.059-0.148c0.036-0.085,0.072-0.173,0.094-0.275c0.072-0.351-0.109-0.709-0.432-0.854
		c-0.021-0.009-0.043-0.019-0.063-0.026c-0.096-0.038-0.197-0.057-0.301-0.057H6.558c-0.275,0-0.5,0.224-0.5,0.5v0.08
		c0,0.254,0.208,0.462,0.462,0.462H9.05c-0.176,0.554-0.217,1.146-0.12,1.727c0.264,1.57,1.55,2.81,3.126,3.015
		c0.163,0.021,0.323,0.031,0.483,0.031c0.925,0,1.816-0.345,2.5-0.981c0.803-0.747,1.228-1.802,1.166-2.896
		C16.119,16.323,15.041,14.991,13.521,14.548"/>
	<path fill="#EFF4F4" d="M26.83,15.924h-2.604c-0.854-1.177-2.268-1.729-3.711-1.443c-1.453,0.288-2.604,1.463-2.865,2.925
		c-0.193,1.085,0.098,2.185,0.795,3.019c0.701,0.835,1.727,1.314,2.813,1.314c1.492,0,2.82-0.893,3.389-2.276
		c0.066-0.161,0.049-0.342-0.049-0.485c-0.094-0.14-0.25-0.224-0.42-0.224H24.16c-0.211,0-0.395,0.123-0.475,0.313
		c-0.404,0.99-1.357,1.63-2.428,1.63c-0.744,0-1.459-0.32-1.957-0.877c-0.506-0.564-0.734-1.292-0.65-2.049
		c0.131-1.151,1.014-2.09,2.15-2.283c0.854-0.144,1.689,0.117,2.299,0.719l0.074,0.074c0.006,0.006,0.012,0.012,0.016,0.018
		l0.01,0.012c0.039,0.041,0.068,0.077,0.096,0.11c0.07,0.089,0.105,0.164,0.137,0.229c0.123,0.259,0.248,0.341,0.744,0.316h2.617
		c0.275,0,0.5-0.225,0.5-0.501v-0.079C27.293,16.131,27.086,15.924,26.83,15.924"/>
</g>
</svg>
