<?xml version="1.0" encoding="utf-8"?>
<!-- Generator: Adobe Illustrator 15.0.0, SVG Export Plug-In . SVG Version: 6.00 Build 0)  -->
<!DOCTYPE svg PUBLIC "-//W3C//DTD SVG 1.1//EN" "http://www.w3.org/Graphics/SVG/1.1/DTD/svg11.dtd">
<svg version="1.1" id="Capa_1" xmlns="http://www.w3.org/2000/svg" xmlns:xlink="http://www.w3.org/1999/xlink" x="0px" y="0px"
	 width="40px" height="47.993px" viewBox="0 0 40 47.993" enable-background="new 0 0 40 47.993" xml:space="preserve">
<path fill="#8240B5" d="M34.135,5.858C30.385,2.107,25.303,0,19.996,0C14.693,0,9.607,2.107,5.857,5.858
	C2.105,9.607,0,14.694,0,19.997c0,3.479,1.296,6.951,3.068,10.104c1.785,3.172,4.138,6.168,6.443,8.729
	c2.313,2.568,4.62,4.748,6.344,6.279c0.861,0.771,1.586,1.377,2.095,1.797c0.254,0.211,0.454,0.377,0.596,0.484
	c0.07,0.061,0.123,0.102,0.162,0.129l0.043,0.033l0.017,0.014c0.727,0.563,1.736,0.563,2.457,0.002l-1.227-1.578
	c1.227,1.578,1.229,1.576,1.229,1.576l0.002-0.004l0.019-0.01c0,0,0.137-0.104,0.209-0.164c0.144-0.107,0.342-0.271,0.592-0.486
	c0.511-0.418,1.229-1.023,2.101-1.795c1.725-1.529,4.026-3.711,6.34-6.277c2.311-2.563,4.662-5.563,6.447-8.731
	c1.774-3.153,3.067-6.627,3.067-10.104C39.992,14.694,37.887,9.607,34.135,5.858z M19.996,26.717c-3.713,0-6.717-3.008-6.717-6.721
	c0-3.709,3.006-6.719,6.717-6.719c3.709,0,6.717,3.01,6.717,6.719C26.713,23.709,23.707,26.717,19.996,26.717z"/>
</svg>
