<?xml version="1.0" encoding="utf-8"?>
<!-- Generator: Adobe Illustrator 15.0.0, SVG Export Plug-In . SVG Version: 6.00 Build 0)  -->
<!DOCTYPE svg PUBLIC "-//W3C//DTD SVG 1.1//EN" "http://www.w3.org/Graphics/SVG/1.1/DTD/svg11.dtd">
<svg version="1.1"
	 id="Capa_1" sodipodi:docname="056c4189af45692dac1bdacaf46b0617.svg" xmlns:inkscape="http://www.inkscape.org/namespaces/inkscape" xmlns:sodipodi="http://sodipodi.sourceforge.net/DTD/sodipodi-0.dtd" xmlns:svg="http://www.w3.org/2000/svg"
	 xmlns="http://www.w3.org/2000/svg" xmlns:xlink="http://www.w3.org/1999/xlink" x="0px" y="0px" width="251.271px"
	 height="36.117px" viewBox="0 0 251.271 36.117" enable-background="new 0 0 251.271 36.117" xml:space="preserve">
<sodipodi:namedview  id="namedview66" inkscape:pageopacity="0.0" inkscape:pageshadow="2" borderopacity="1.0" bordercolor="#666666" pagecolor="#ffffff" inkscape:pagecheckerboard="0">
	</sodipodi:namedview>
<g id="layer1" transform="translate(-56.348864,-1004.2869)">
	<path id="path3078" fill="#016FD0" d="M132.907,1005.095h66.095v18.92l-3.271,5.113l3.271,4.549v5.918h-66.095v-18.799l2.045-2.352
		l-2.045-2.249V1005.095z"/>
	<path id="path3082" fill="#FFFFFF" d="M145.737,1034.392v-10.377h10.985l1.181,1.537l1.217-1.537h39.882v9.662
		c0,0-1.043,0.705-2.25,0.715h-22.08l-1.33-1.635v1.635h-4.354v-2.791c0,0-0.596,0.389-1.883,0.389h-1.482v2.402h-6.593l-1.178-1.57
		l-1.194,1.57H145.737z"/>
	<path id="path3080" fill="#FFFFFF" d="M132.907,1016.196l2.479-5.777h4.284l1.405,3.236v-3.236h5.325l0.839,2.339l0.812-2.339
		h23.91v1.176c0,0,1.258-1.176,3.322-1.176l7.761,0.027l1.38,3.193v-3.22h4.459l1.227,1.835v-1.835h4.498v10.378h-4.498
		l-1.176-1.841v1.841h-6.55l-0.658-1.637h-1.76l-0.648,1.637h-4.439c-1.776,0-2.913-1.152-2.913-1.152v1.152h-6.697l-1.328-1.637
		v1.637h-24.898l-0.658-1.637h-1.754l-0.654,1.637h-3.062v-4.601H132.907z"/>
	<path id="path3046" fill="#016FD0" d="M136.262,1011.698l-3.342,7.77h2.176l0.616-1.556h3.585l0.612,1.556h2.225l-3.339-7.77
		H136.262z M137.497,1013.506l1.095,2.719h-2.188L137.497,1013.506z"/>
	<path id="path3048" fill="#016FD0" d="M142.364,1019.467v-7.77l3.091,0.012l1.8,5.009l1.755-5.021h3.066v7.77h-1.943v-5.725
		l-2.059,5.725h-1.703l-2.064-5.725v5.725H142.364z"/>
	<path id="path3050" fill="#016FD0" d="M153.405,1019.467v-7.77h6.338v1.738h-4.377v1.329h4.274v1.636h-4.274v1.38h4.377v1.687
		H153.405L153.405,1019.467z"/>
	<path id="path3052" fill="#016FD0" d="M160.868,1011.698v7.77h1.942v-2.76h0.816l2.328,2.76h2.374l-2.556-2.862
		c1.05-0.089,2.13-0.989,2.13-2.387c0-1.635-1.283-2.521-2.716-2.521H160.868z M162.812,1013.436h2.22
		c0.532,0,0.921,0.417,0.921,0.817c0,0.517-0.503,0.818-0.892,0.818h-2.249V1013.436z"/>
	<path id="path3054" fill="#016FD0" d="M170.683,1019.467H168.7v-7.77h1.982L170.683,1019.467L170.683,1019.467z"/>
	<path id="path3056" fill="#016FD0" d="M175.386,1019.467h-0.431c-2.069,0-3.326-1.632-3.326-3.853c0-2.276,1.24-3.917,3.854-3.917
		h2.147v1.84h-2.225c-1.063,0-1.813,0.829-1.813,2.095c0,1.505,0.858,2.137,2.097,2.137h0.512L175.386,1019.467z"/>
	<path id="path3058" fill="#016FD0" d="M179.613,1011.698l-3.344,7.77h2.178l0.615-1.556h3.584l0.613,1.556h2.223l-3.338-7.77
		H179.613z M180.848,1013.506l1.093,2.719h-2.188L180.848,1013.506z"/>
	<path id="path3060" fill="#016FD0" d="M185.711,1019.467v-7.77h2.47l3.152,4.882v-4.882h1.94v7.77h-2.39l-3.231-5.01v5.01H185.711z
		"/>
	<path id="path3062" fill="#016FD0" d="M147.065,1033.064v-7.771h6.341v1.74h-4.377v1.328h4.273v1.635h-4.273v1.381h4.377v1.688
		L147.065,1033.064L147.065,1033.064z"/>
	<path id="path3064" fill="#016FD0" d="M178.125,1033.064v-7.771h6.34v1.74h-4.375v1.328h4.252v1.635h-4.252v1.381h4.375v1.688
		L178.125,1033.064L178.125,1033.064z"/>
	<path id="path3066" fill="#016FD0" d="M153.649,1033.064l3.089-3.838l-3.159-3.936h2.446l1.883,2.434l1.889-2.434h2.351
		l-3.117,3.889l3.093,3.885h-2.446l-1.828-2.396l-1.782,2.396H153.649L153.649,1033.064z"/>
	<path id="path3068" fill="#016FD0" d="M162.351,1025.294v7.771h1.994v-2.455h2.045c1.729,0,3.039-0.918,3.039-2.703
		c0-1.478-1.025-2.613-2.787-2.613H162.351z M164.345,1027.052h2.151c0.56,0,0.958,0.344,0.958,0.895
		c0,0.521-0.396,0.896-0.964,0.896h-2.146V1027.052L164.345,1027.052z"/>
	<path id="path3072" fill="#016FD0" d="M170.273,1025.292v7.771h1.942v-2.763h0.817l2.328,2.763h2.372l-2.556-2.861
		c1.05-0.09,2.13-0.989,2.13-2.389c0-1.636-1.283-2.521-2.714-2.521H170.273z M172.216,1027.032h2.221
		c0.533,0,0.921,0.416,0.921,0.815c0,0.519-0.504,0.817-0.893,0.817h-2.249V1027.032z"/>
	<path id="path3074" fill="#016FD0" d="M185.363,1033.064v-1.688h3.888c0.575,0,0.823-0.311,0.823-0.651
		c0-0.325-0.246-0.655-0.823-0.655h-1.757c-1.524,0-2.377-0.931-2.377-2.326c0-1.246,0.776-2.447,3.047-2.447h3.783l-0.815,1.748
		h-3.272c-0.625,0-0.815,0.328-0.815,0.644c0,0.322,0.235,0.679,0.716,0.679h1.841c1.702,0,2.438,0.967,2.438,2.229
		c0,1.356-0.821,2.474-2.531,2.474h-4.143L185.363,1033.064L185.363,1033.064z"/>
	<path id="path3076" fill="#016FD0" d="M192.492,1033.064v-1.688h3.891c0.572,0,0.822-0.311,0.822-0.651
		c0-0.325-0.247-0.655-0.822-0.655h-1.76c-1.525,0-2.377-0.931-2.377-2.326c0-1.246,0.778-2.447,3.048-2.447h3.784l-0.817,1.748
		h-3.271c-0.625,0-0.816,0.328-0.816,0.644c0,0.322,0.236,0.679,0.716,0.679h1.841c1.702,0,2.438,0.967,2.438,2.229
		c0,1.356-0.821,2.474-2.532,2.474h-4.143L192.492,1033.064L192.492,1033.064z"/>
</g>
<g id="layer1_1_" transform="translate(-334.55043,-538.36598)">
	<g id="g10267" transform="matrix(4.9846856,0,0,-4.9846856,-1470.1185,1039.6264)">
		<g id="g49">
			<g>
				<g>
					<g>
						<defs>
							<path id="SVGID_1_" d="M403.2,97.852c-0.009-0.707,0.63-1.101,1.111-1.336c0.494-0.241,0.661-0.395,0.659-0.61
								c-0.004-0.329-0.395-0.475-0.76-0.48c-0.638-0.01-1.009,0.172-1.304,0.31l-0.23-1.076c0.296-0.136,0.844-0.255,1.412-0.261
								c1.334,0,2.206,0.658,2.211,1.679c0.005,1.295-1.792,1.367-1.779,1.946c0.004,0.176,0.172,0.363,0.539,0.411
								c0.181,0.024,0.683,0.043,1.252-0.219l0.223,1.041c-0.306,0.111-0.699,0.218-1.188,0.218
								C404.09,99.475,403.207,98.807,403.2,97.852 M408.678,99.385c-0.244,0-0.449-0.142-0.541-0.36l-1.905-4.549h1.333
								l0.265,0.733h1.628l0.154-0.733h1.174l-1.025,4.909H408.678 M408.865,98.059l0.385-1.843h-1.053L408.865,98.059
								 M401.584,99.385l-1.051-4.909h1.27l1.05,4.909H401.584 M399.705,99.385l-1.322-3.341l-0.534,2.841
								c-0.063,0.317-0.311,0.5-0.586,0.5h-2.161l-0.03-0.143c0.444-0.096,0.948-0.252,1.253-0.418
								c0.187-0.101,0.24-0.19,0.302-0.431l1.013-3.917h1.342l2.057,4.909H399.705"/>
						</defs>
						<clipPath id="SVGID_2_">
							<use xlink:href="#SVGID_1_"  overflow="visible"/>
						</clipPath>
						<g id="g10269" clip-path="url(#SVGID_2_)">
							<g id="g10275" transform="translate(351.611,96.896)">
								
									<linearGradient id="path10283_1_" gradientUnits="userSpaceOnUse" x1="-203.9114" y1="-3.0894" x2="-203.7539" y2="-3.0894" gradientTransform="matrix(51982.8984 19144.1465 19144.1465 -51982.8984 10659092 3743108)">
									<stop  offset="0" style="stop-color:#222357"/>
									<stop  offset="1" style="stop-color:#254AA5"/>
								</linearGradient>
								<path id="path10283" fill="url(#path10283_1_)" d="M41.816,1.973L57.3,7.675l3.523-9.565L45.338-7.593"/>
							</g>
						</g>
					</g>
				</g>
			</g>
		</g>
	</g>
</g>
<g id="g63" transform="translate(-0.84886368,-1.9416651)">
	<rect id="rect55" x="26.09" y="8.718" fill="#FF5F00" width="12.556" height="22.563"/>
	<path id="path57" fill="#EB001B" d="M26.887,20.002c-0.005-4.404,2.02-8.565,5.48-11.284c-6.23-4.897-15.252-3.815-20.148,2.416
		c-4.896,6.23-3.813,15.25,2.416,20.147c5.204,4.09,12.529,4.09,17.732,0C28.905,28.563,26.883,24.404,26.887,20.002"/>
	<path id="path59" fill="#F79E1B" d="M55.586,20.002c-0.001,7.923-6.426,14.349-14.351,14.349c-3.218,0-6.342-1.082-8.868-3.069
		c6.229-4.896,7.313-13.917,2.416-20.146c-0.707-0.899-1.52-1.709-2.416-2.416c6.229-4.898,15.25-3.818,20.146,2.412
		c1.988,2.528,3.068,5.651,3.069,8.868L55.586,20.002L55.586,20.002z"/>
</g>
</svg>
