<?xml version="1.0" encoding="utf-8"?>
<!-- Generator: Adobe Illustrator 15.0.0, SVG Export Plug-In . SVG Version: 6.00 Build 0)  -->
<!DOCTYPE svg PUBLIC "-//W3C//DTD SVG 1.1//EN" "http://www.w3.org/Graphics/SVG/1.1/DTD/svg11.dtd">
<svg version="1.1" id="Capa_1" xmlns="http://www.w3.org/2000/svg" xmlns:xlink="http://www.w3.org/1999/xlink" x="0px" y="0px"
	 width="800px" height="253.978px" viewBox="0 0 800 253.978" enable-background="new 0 0 800 253.978" xml:space="preserve">
<g>
	<path fill-rule="evenodd" clip-rule="evenodd" fill="#F2F2F2" d="M97.545,156.346V97.852h97.7c0,3.476-0.043,6.906,0.009,10.334
		c0.139,8.941-0.259,17.937,0.589,26.813c2.803,29.349,26.635,54.381,55.742,59.143c37.221,6.088,71.155-17.186,78.82-54.059
		c7.668-36.892-18.175-74.296-55.381-80.331c-14.644-2.375-28.55-0.281-42.154,6.232c-8.701-17.397-17.39-34.769-26.2-52.381
		c1.171-0.627,2.186-1.237,3.254-1.732c62.318-28.911,136.382-3.017,167.128,58.423c23.989,47.938,15.068,106.43-22.318,144.749
		c-26.129,26.783-58.16,39.619-95.48,38.775c-55.271-1.249-104.511-40.508-118.337-94.081c-0.695-2.695-1.75-3.493-4.477-3.457
		c-11.839,0.152-23.681,0.065-35.522,0.065C99.827,156.346,98.736,156.346,97.545,156.346"/>
	<path fill-rule="evenodd" clip-rule="evenodd" fill="#F2F2F2" d="M702.424,97.598v58.566h-97.669v-3.031v-26.568
		c-0.001-34.571-26.756-64.036-61.191-67.389c-36.907-3.594-69.351,21.941-74.618,58.729c-5.355,37.404,22.552,73.032,60.072,76.879
		c13.341,1.367,25.931-0.968,38.189-6.801c8.723,17.44,17.413,34.814,26.297,52.576c-3.87,1.68-7.547,3.431-11.335,4.896
		c-72.534,28.039-153.481-15.813-169.748-91.932C397.609,84.207,442.722,15.933,512.3,2.37
		c65.698-12.808,129.77,27.473,147.053,92.535c0.578,2.174,1.444,2.755,3.576,2.739c12.024-0.095,24.051-0.046,36.075-0.045
		C700.101,97.598,701.196,97.598,702.424,97.598"/>
	<path fill-rule="evenodd" clip-rule="evenodd" fill="#F2F2F2" d="M800,127.105c-0.004,21.596-17.63,39.159-39.164,39.024
		c-21.489-0.135-38.921-17.53-39.062-38.983c-0.142-21.703,17.561-39.259,39.57-39.242C782.715,87.921,800.004,105.456,800,127.105"
		/>
	<path fill-rule="evenodd" clip-rule="evenodd" fill="#F2F2F2" d="M0,127.072c-0.011-21.707,17.37-39.167,38.988-39.167
		c21.653,0,39.189,17.425,39.24,38.993c0.05,21.521-17.518,39.164-39.067,39.231C17.593,166.196,0.011,148.66,0,127.072"/>
</g>
</svg>
